<?xml version="1.0" encoding="UTF-8" standalone="no"?>
<!-- Created with Inkscape (http://www.inkscape.org/) -->

<svg
        width="2016.0753"
        height="400"
        viewBox="0 0 2016.0753 400.00003"
        version="1.1"
        id="svg1"
        xmlns="http://www.w3.org/2000/svg"
>
  <defs
     id="defs1" />
  <g
     id="layer1"
     transform="translate(-720.54528,618.93841)">
    <g
       id="g1">
      <g
         id="g2"
         transform="matrix(1.0468663,0,0,1.0468663,29.234477,18.617766)"
         style="stroke-width:0.955232">
        <g
           id="g3"
           transform="translate(52.297876,144.66139)" />
      </g>
      <path
         d="m 915.15835,-219.13501 c -10.87469,-1.01159 -20.99066,-8.09277 -27.31316,-18.96744 l -1.26451,-2.27611 -1.2645,1.01159 c -3.54056,3.5406 -10.11595,7.33409 -14.92103,8.8515 -19.47326,6.06956 -38.18781,-6.32249 -42.4871,-28.32473 l -0.50582,-3.03481 -2.27611,1.01162 c -21.74933,8.59857 -42.99289,-3.03482 -46.78635,-25.28997 -0.5058,-4.04638 -0.25287,-11.88627 0.7587,-15.42685 v -0.75869 l -1.77029,0.25285 c -2.27611,0 -7.33408,-0.25285 -10.3689,-1.01158 -23.51966,-5.05799 -33.38272,-29.33635 -20.73778,-51.33858 1.51744,-2.52902 1.51744,-2.52902 0.50586,-2.7819 -0.50586,0 -2.02323,-0.5058 -3.54063,-1.2645 -26.55443,-10.62178 -30.34792,-40.96972 -7.58697,-59.43139 l 1.01159,-1.0116 -2.02321,-1.5174 c -22.76093,-17.95581 -16.94423,-50.07404 10.8747,-59.68421 1.0116,-0.25286 2.02318,-0.50576 2.02318,-0.7587 0,0 -0.50579,-0.7587 -1.01158,-1.5174 -15.67976,-25.54286 0.25285,-53.10886 30.60081,-53.10886 h 1.77031 v -0.75872 c -2.27611,-9.86306 -1.26451,-19.22034 2.78188,-26.30152 8.0928,-14.92109 25.54285,-20.48485 43.24581,-14.16237 1.26451,0.50582 2.27609,0.75873 2.27609,0.75873 0,0 0,-0.50582 0.25286,-1.01161 4.80512,-30.34792 33.88854,-41.47549 57.1553,-22.00225 l 1.77029,1.5174 1.01159,-1.7703 c 14.41524,-26.04864 45.26896,-26.30155 60.69585,-0.5058 l 1.26452,2.2761 1.26446,-1.26449 c 21.24356,-19.72617 51.84439,-9.35729 57.40819,19.72615 l 0.5058,3.0348 2.0232,-0.75873 c 22.0022,-8.59858 42.9929,2.52901 46.7864,24.78417 0.7586,4.04639 0.5058,12.13915 -0.5058,15.93265 0,0.50579 0,0.50579 2.0232,0.25286 2.2761,0 7.0812,0.25285 10.1159,1.0116 23.2668,5.05797 33.1298,29.08343 20.7378,51.08567 -0.7587,1.5174 -1.2645,2.52901 -1.2645,2.52901 0,0.25285 1.0116,0.50577 2.0232,0.7587 28.0718,9.35726 33.3827,41.47544 9.8631,60.44291 l -1.0116,1.01159 2.0231,1.51739 c 22.761,17.95588 16.9443,50.0741 -10.6217,59.68426 -1.2645,0.25286 -2.2761,0.50583 -2.2761,0.7587 0,0 0.5058,0.7587 1.0116,1.5174 6.5754,10.62179 7.8399,22.50804 3.7935,32.37112 -5.3109,12.64498 -18.7146,20.73777 -34.3943,20.73777 h -1.7704 v 0.7587 c 1.7704,7.83987 1.5174,15.42685 -0.7586,21.49644 -6.3226,17.95585 -25.2899,26.04863 -45.0161,18.96745 -2.7819,-1.0116 -2.529,-1.0116 -2.7819,1.77028 -4.8051,28.83056 -34.39435,39.45233 -57.15529,20.48486 l -1.77031,-1.5174 -1.01158,1.7703 c -7.33407,13.65658 -20.23192,20.99063 -33.3827,19.47323 z m 5.31084,-25.28994 c 5.56382,-1.77029 8.85149,-9.61018 10.36889,-23.51964 0.25286,-2.78192 1.01159,-4.80509 2.27611,-6.8283 0.50579,-0.50579 1.2645,-1.51736 1.77028,-2.27606 6.06959,-9.10441 18.46165,-6.82831 22.76095,4.29927 7.587,19.72614 23.51963,25.28994 26.04866,9.10436 0.7587,-4.04638 -0.25287,-11.88627 -1.7703,-16.69135 -1.77032,-5.05798 0,-12.64496 3.54058,-16.43847 5.05799,-5.56376 13.15078,-5.31086 18.20874,0.25286 9.3573,9.86311 16.4385,13.65658 23.2667,12.89787 6.8284,-0.75869 8.3458,-8.59857 3.2877,-18.96743 -1.2645,-2.78189 -2.2761,-4.29929 -5.5637,-9.35728 -1.7703,-2.2761 -2.529,-6.32249 -2.529,-11.12757 0,-5.56378 4.5522,-10.62178 10.6218,-11.63338 3.0348,-0.50579 4.5521,-0.25286 9.863,2.27609 8.5986,4.29929 15.6798,5.81669 21.2436,4.55221 11.6333,-3.28771 7.8398,-15.4269 -8.0928,-26.30155 -6.5754,-4.29929 -9.3573,-13.40367 -6.3225,-19.47326 2.529,-5.31091 7.3341,-7.587 14.6681,-6.5754 8.5986,1.26449 15.9328,0.25286 20.9907,-2.2761 11.3805,-6.57537 3.7935,-17.95583 -14.921,-22.50803 -8.8516,-2.2761 -14.9211,-10.62178 -13.1508,-17.70296 1.5174,-5.5638 4.805,-8.34568 11.8862,-9.86307 12.8979,-2.7819 21.2436,-9.10438 21.2436,-16.18557 0,-6.82827 -10.6217,-10.62177 -25.037,-9.10437 -4.2994,0.5058 -9.8631,-1.26449 -13.4037,-4.29929 -7.0811,-6.0696 -5.5637,-15.67974 3.2877,-21.24352 8.5985,-5.31091 13.9094,-11.63339 14.921,-17.95588 1.7703,-9.86308 -10.1159,-12.39206 -25.7956,-5.058 -9.1045,4.2993 -18.4617,2.27611 -22.0023,-4.80508 -2.529,-5.31087 -1.7704,-9.35725 3.0348,-15.67976 12.3921,-16.18556 9.6102,-31.86532 -4.8052,-26.80734 -4.2992,1.51741 -8.0927,4.04641 -13.9094,9.35729 -3.7935,3.7935 -4.5522,4.29929 -8.59859,5.56378 -5.81669,1.5174 -10.11595,0.7587 -13.90942,-3.03477 -3.79353,-3.79351 -4.55221,-7.83989 -2.52902,-14.16238 7.08119,-21.49645 -2.52902,-35.91172 -15.42687,-23.01385 -3.03478,3.28768 -5.31088,6.82827 -8.59858,13.65658 -3.28769,7.58697 -12.89787,11.63335 -19.47323,8.59858 -5.05798,-2.52901 -6.82829,-6.06961 -7.33408,-13.65658 -0.50585,-9.86307 -3.0348,-16.69137 -7.33408,-20.73775 -8.09278,-7.58698 -16.43851,1.5174 -17.95588,19.22036 -0.5058,4.55219 -1.01159,6.8283 -2.7819,9.10436 -0.25285,0.25286 -1.01158,1.26453 -1.51737,2.0232 -6.06962,8.8515 -18.46168,6.57539 -22.50809,-4.04639 -6.57537,-17.45004 -21.49643,-24.78413 -25.54284,-12.89787 -1.51737,5.058 -1.26447,13.4037 1.01163,20.23197 1.77028,5.05799 0,12.64496 -3.54058,16.43844 -5.058,5.56381 -13.1508,5.3109 -18.20876,-0.25286 -7.08122,-7.58697 -12.39208,-11.12756 -17.70298,-12.64497 -11.12757,-2.52898 -15.17396,5.8167 -8.85147,18.96746 1.26446,2.52901 2.27609,4.04641 5.56379,9.10438 1.77031,2.27609 2.52897,6.32247 2.52897,11.12758 0,5.56379 -4.55219,10.62178 -10.62177,11.63336 -3.03475,0.5058 -4.55218,0.25286 -9.86305,-2.52898 -27.56606,-13.65658 -38.94653,4.55217 -13.65657,21.49644 6.8283,4.5522 10.11598,13.40364 7.08115,19.47324 -2.52896,5.8167 -7.33406,8.09277 -14.92107,7.08118 -8.09273,-1.01161 -15.17395,-0.50579 -19.979,2.02319 -12.13921,5.8167 -5.81671,17.19717 12.13914,22.25517 4.80512,1.26449 5.31091,1.5174 6.82829,2.52897 12.64498,8.09277 10.62177,22.25514 -3.5406,25.54285 -9.61019,2.02319 -15.67976,5.31087 -19.22036,10.11599 -6.8283,9.10437 1.51743,15.93265 18.46168,15.17394 9.61017,-0.25285 9.10438,-0.25285 15.42686,2.7819 9.10437,4.29929 8.85148,16.69137 -0.25285,22.25515 -10.11596,6.06959 -16.43844,14.41527 -15.93265,20.99067 0.7587,7.83984 12.13918,9.10437 26.04864,2.52897 5.05798,-2.2761 7.83986,-2.78188 13.40367,-1.5174 9.61018,1.77032 13.15074,12.64498 6.8283,20.48486 -13.4037,16.69137 -11.38048,33.63562 3.54055,28.32471 4.29933,-1.51737 8.09281,-4.04637 13.90948,-9.35724 2.27611,-2.52902 3.79349,-3.79351 4.80506,-4.04641 13.65659,-6.32248 24.53127,2.2761 20.232,15.67976 -7.0812,21.49647 2.52898,35.65883 15.17394,23.01383 2.78189,-2.78186 5.058,-6.06957 7.58701,-11.38044 5.56378,-11.63339 16.69132,-15.42687 24.02541,-8.34567 2.78189,2.52898 3.79353,4.80507 4.04639,11.12756 0.75873,15.42685 7.58699,25.79572 15.17397,23.01384 z m -42.4871,-79.91621 c -14.66815,-1.51737 -22.00222,-19.22035 -12.39206,-30.60083 8.5986,-10.36887 24.78414,-8.59856 31.10663,3.28771 6.82827,13.15075 -3.79346,28.57761 -18.71457,27.31312 z m 75.86985,0 c -14.66818,-1.51737 -22.00227,-19.22035 -12.3921,-30.60083 8.5986,-10.36887 24.78417,-8.59856 31.10667,3.28771 6.82827,13.15075 -3.79353,28.57761 -18.71457,27.31312 z m -113.80475,-75.86981 c -14.66815,-1.51738 -22.00222,-19.22036 -12.39205,-30.60081 8.59858,-10.36889 24.78412,-8.59859 31.10662,3.28767 6.82827,13.15076 -3.79346,28.57761 -18.71457,27.31314 z m 75.8698,0 c -14.66817,-1.51738 -22.00222,-19.22036 -12.39206,-30.60081 8.59859,-10.36889 24.78417,-8.59859 31.10663,3.28767 6.82828,13.15076 -3.79348,28.57761 -18.71457,27.31314 z m 75.86986,0 c -14.66817,-1.51738 -22.00222,-19.22036 -12.39207,-30.60081 8.59854,-10.36889 24.78412,-8.59859 31.10662,3.28767 6.8283,13.15076 -3.7935,28.57761 -18.71455,27.31314 z m -113.80476,-75.86978 c -12.89785,-1.26452 -20.73773,-15.67976 -14.66815,-27.31316 7.08121,-13.65657 26.30156,-13.65657 33.38272,0 6.82827,13.1508 -3.79346,28.57765 -18.71457,27.31316 z m 75.86985,0 c -12.89788,-1.26452 -20.73775,-15.67976 -14.66818,-27.31316 7.08119,-13.65657 26.30155,-13.65657 33.38275,0 6.82827,13.1508 -3.79353,28.57765 -18.71457,27.31316 z"
         id="path2"
         style="fill:#cc0000;fill-opacity:1;stroke-width:0.989228" />
      <path
         style="font-weight:600;font-size:291.644px;font-family:'Montserrat Alternates';-inkscape-font-specification:'Montserrat Alternates Semi-Bold';text-align:center;letter-spacing:0px;text-anchor:middle;fill:#cc0000;stroke-width:6.86684;stroke-linecap:round;stroke-linejoin:round;stroke-miterlimit:20;paint-order:stroke fill markers"
         d="m 1389.6253,-319.00515 c -7.6101,6.00801 -17.6234,8.81175 -28.0374,8.81175 -18.825,0 -29.6394,-11.21495 -29.6394,-32.04272 v -101.73566 h 57.2764 v -40.0534 h -57.2764 v -48.86516 h -50.0668 v 191.85581 c 0,47.26302 26.8358,72.09613 73.6983,72.09613 18.0239,0 36.0479,-4.80641 48.064,-14.41922 z m 176.6355,-169.02537 c -29.6396,0 -54.8732,9.61281 -71.2952,27.23631 V -568.9384 h -50.0667 v 297.19626 h 50.0667 v -108.14419 c 0,-42.85714 24.0322,-64.48599 59.6797,-64.48599 32.0427,0 50.8679,18.42458 50.8679,56.47531 v 116.15487 h 50.0667 v -122.56341 c 0,-64.48599 -38.0508,-93.72497 -89.3191,-93.72497 z m 200.6672,33.64485 v -31.24165 h -47.6635 v 213.88518 h 50.0668 v -103.73832 c 0,-43.6582 24.0321,-66.08811 62.0828,-66.08811 3.6048,0 7.2096,0.40053 11.6154,1.20159 v -47.66354 c -35.6475,0 -61.6822,11.21495 -76.1015,33.64485 z m 218.2911,142.99067 c -31.2416,0 -54.4726,-13.21764 -64.8865,-37.65021 l 163.8185,-32.04272 c -0.4007,-66.88919 -48.4648,-106.94259 -108.1442,-106.94259 -63.6849,0 -110.1469,45.66087 -110.1469,109.34579 0,63.68492 46.462,109.74633 118.1575,109.74633 36.8491,0 66.8892,-12.01602 85.7143,-34.84646 l -26.4352,-30.84113 c -15.6208,15.62084 -34.0455,23.23099 -58.0775,23.23099 z m -9.2122,-136.58212 c 30.04,0 52.4698,17.6235 59.279,43.65821 l -120.9613,23.23098 v -0.40054 c 0,-40.85448 25.2337,-66.48865 61.6823,-66.48865 z m 222.2964,179.03872 c 60.0801,0 96.9294,-26.03471 96.9294,-66.08812 0,-83.71161 -132.1762,-45.26033 -132.1762,-88.51802 0,-14.0187 14.419,-24.03205 44.8597,-24.03205 20.4272,0 40.8545,4.00534 61.2817,16.02136 l 19.2256,-38.05073 c -19.2256,-11.61549 -51.6689,-18.42456 -80.1068,-18.42456 -57.6768,0 -94.1254,26.43524 -94.1254,66.88918 0,85.31376 132.1762,46.86249 132.1762,87.71697 0,14.81975 -13.2176,23.6315 -44.8598,23.6315 -26.8359,0 -55.6742,-8.81175 -74.4994,-21.2283 l -19.2256,38.05073 c 19.2256,13.61816 54.8731,24.03204 90.5206,24.03204 z m 261.5486,-219.09212 c -29.6396,0 -54.8732,9.61281 -71.2952,27.23631 V -568.9384 H 2338.49 v 297.19626 h 50.0667 v -108.14419 c 0,-42.85714 24.0321,-64.48599 59.6797,-64.48599 32.0427,0 50.8678,18.42458 50.8678,56.47531 v 116.15487 h 50.0668 v -122.56341 c 0,-64.48599 -38.0508,-93.72497 -89.3191,-93.72497 z m 200.6674,33.64485 v -31.24165 h -47.6637 v 213.88518 h 50.0667 v -103.73832 c 0,-43.6582 24.0322,-66.08811 62.0829,-66.08811 3.6048,0 7.2097,0.40053 11.6154,1.20159 v -47.66354 c -35.6475,0 -61.6821,11.21495 -76.1013,33.64485 z"
         id="text42"
         aria-label="threshr" />
      <text
         xml:space="preserve"
         style="font-weight:bold;font-size:26.6667px;font-family:FreeSans;-inkscape-font-specification:'FreeSans Bold';letter-spacing:0px;fill:#cc0000;paint-order:stroke fill markers"
         x="609.35004"
         y="268.07245"
         id="text2"><tspan
           id="tspan2"
           x="609.35004"
           y="268.07245"> </tspan></text>
      <text
         xml:space="preserve"
         style="font-weight:bold;font-size:26.6667px;font-family:FreeSans;-inkscape-font-specification:'FreeSans Bold';text-align:center;letter-spacing:0px;text-anchor:middle;fill:#cc0000;paint-order:stroke fill markers"
         x="609.35004"
         y="307.07245"
         id="text4"><tspan
           id="tspan4"
           x="613.90735"
           y="307.07245"> </tspan></text>
      <g
         id="g7"
         transform="translate(-1568)">
        <path
           d="m 795.98897,269.29244 c -10.50096,-0.97683 -20.26927,-7.81465 -26.37448,-18.31559 l -1.22106,-2.19788 -1.22104,0.97682 c -3.41888,3.41892 -9.76829,7.08204 -14.40823,8.5473 -18.80403,5.86097 -36.87541,-6.1052 -41.02694,-27.35129 l -0.48844,-2.93051 -2.19788,0.97685 c -21.00187,8.30307 -41.51535,-2.93051 -45.17845,-24.42082 -0.48841,-3.90732 -0.24417,-11.47777 0.73263,-14.89668 v -0.73262 l -1.70945,0.24416 c -2.19788,0 -7.08203,-0.24416 -10.01254,-0.97682 -22.71137,-4.88416 -32.23546,-28.32813 -20.02509,-49.57422 1.46529,-2.4421 1.46529,-2.4421 0.48847,-2.68629 -0.48847,0 -1.95369,-0.48841 -3.41894,-1.22104 C 604.2857,124.47707 600.62258,95.172104 622.6013,77.344914 l 0.97682,-0.97684 -1.95367,-1.46525 c -21.97871,-17.33872 -16.36191,-48.353144 10.50096,-57.633036 0.97684,-0.244166 1.95365,-0.488383 1.95365,-0.732625 0,0 -0.4884,-0.732626 -0.97681,-1.465252 -15.14089,-24.6650072 0.24416,-51.283647 29.54915,-51.283647 h 1.70946 v -0.732651 c -2.19788,-9.524084 -1.22105,-18.559784 2.68628,-25.397607 7.81467,-14.408297 24.66501,-19.780843 41.75957,-13.675646 1.22106,0.488434 2.19788,0.732651 2.19788,0.732651 0,0 0,-0.488434 0.24416,-0.976843 4.63998,-29.304948 32.72389,-40.050098 55.19103,-21.246094 l 1.70946,1.46525 0.97682,-1.709468 c 13.91983,-25.153416 43.71319,-25.397636 58.60991,-0.488408 l 1.22106,2.197876 1.221,-1.221033 c 20.51348,-19.048241 50.06264,-9.035701 55.43521,19.048217 l 0.48841,2.930503 1.95369,-0.732651 c 21.24609,-8.303074 41.51535,2.442094 45.17845,23.932406 0.73262,3.907321 0.48841,11.721961 -0.48841,15.38509 0,0.488408 0,0.488408 1.95368,0.244166 2.19788,0 6.8378,0.244165 9.76831,0.976842 22.46712,4.884138 31.9912,28.0839168 20.02503,49.329987 -0.73261,1.465252 -1.221,2.442094 -1.221,2.442094 0,0.244166 0.97681,0.488383 1.95365,0.732626 27.1071,9.035675 32.23543,40.050043 9.52411,58.365663 l -0.97687,0.97682 1.95369,1.46525 c 21.97874,17.33878 16.36193,48.353196 -10.25672,57.633076 -1.22105,0.24417 -2.19786,0.48844 -2.19786,0.73263 0,0 0.48839,0.73262 0.97681,1.46525 6.34942,10.25674 7.57044,21.7345 3.66313,31.25861 -5.12841,12.21041 -18.0714,20.02507 -33.21228,20.02507 h -1.70947 v 0.73263 c 1.70947,7.57044 1.46523,14.89668 -0.73262,20.75768 -6.1052,17.33875 -24.42078,25.15341 -43.46903,18.31559 -2.68629,-0.97684 -2.44207,-0.97684 -2.68629,1.70944 -4.63992,27.83973 -33.21228,38.09647 -55.19099,19.78085 l -1.70947,-1.46525 -0.97681,1.70946 c -7.08202,13.18724 -19.53661,20.26924 -32.23544,18.80399 z m 5.12833,-24.4208 c 5.3726,-1.70945 8.54729,-9.2799 10.01254,-22.71133 0.24416,-2.68631 0.97682,-4.63995 2.19788,-6.59363 0.48841,-0.48841 1.22104,-1.46522 1.70944,-2.19785 5.86099,-8.79151 17.82718,-6.59364 21.97872,4.15153 7.32626,19.0482 22.71133,24.42079 25.15344,8.79146 0.73263,-3.90732 -0.24417,-11.47777 -1.70946,-16.11771 -1.70947,-4.88416 0,-12.21039 3.4189,-15.87353 4.88417,-5.37256 12.69883,-5.12835 17.58297,0.24417 9.0357,9.52414 15.87352,13.18724 22.46715,12.45461 6.59362,-0.73262 8.05884,-8.30307 3.1747,-18.31559 -1.22106,-2.68628 -2.19788,-4.15153 -5.37257,-9.0357 -1.70947,-2.19787 -2.44209,-6.1052 -2.44209,-10.74514 0,-5.37257 4.39572,-10.25674 10.25676,-11.23358 2.93045,-0.48841 4.39572,-0.24416 9.52407,2.19788 8.30308,4.15153 15.14093,5.61678 20.51348,4.39575 11.23355,-3.17472 7.57045,-14.89671 -7.81466,-25.39763 -6.34939,-4.15154 -9.03566,-12.94303 -6.10521,-18.80403 2.4421,-5.12838 7.08205,-7.32625 14.16405,-6.34941 8.30308,1.22103 15.38513,0.24416 20.26929,-2.19788 10.98933,-6.34939 3.66313,-17.338746 -14.40825,-21.734496 -8.54732,-2.19788 -14.40829,-10.25674 -12.69883,-17.09456 1.46525,-5.37258 4.63993,-8.05886 11.47777,-9.52411 12.45458,-2.68629 20.51344,-8.79148 20.51344,-15.62931 0,-6.5936 -10.2567,-10.25673 -24.17654,-8.79148 -4.15157,0.48841 -9.52413,-1.22103 -12.94305,-4.151537 -6.8378,-5.861005 -5.37257,-15.140872 3.1747,-20.513444 8.30307,-5.1283802 13.43145,-11.2335772 14.40827,-17.3387742 1.70947,-9.5241078 -9.76831,-11.9661768 -24.90918,-4.884163 -8.79151,4.151537 -17.82721,2.197877 -21.24611,-4.6399448 -2.44208,-5.128355 -1.70947,-9.035675 2.9305,-15.140898 11.96618,-15.629306 9.27989,-30.770204 -4.63997,-25.886041 -4.15151,1.465252 -7.81462,3.907346 -13.43143,9.0357 -3.66311,3.663129 -4.39574,4.151538 -8.30307,5.372572 -5.6168,1.465252 -9.76831,0.732626 -13.43141,-2.930477 -3.66315,-3.663128 -4.39576,-7.570449 -2.4421,-13.675647 6.83783,-20.757686 -2.44211,-34.677549 -14.8967,-22.222937 -2.93048,3.174695 -5.12836,6.593605 -8.30307,13.187237 -3.1747,7.326232 -12.4546,11.233552 -18.80399,8.303075 -4.88415,-2.442095 -6.59362,-5.861006 -7.08203,-13.187238 -0.48846,-9.524109 -2.9305,-16.11774 -7.08202,-20.02506 -7.81466,-7.326232 -15.87357,1.465251 -17.3388,18.559808 -0.48841,4.395755 -0.97682,6.593632 -2.68629,8.791484 -0.24416,0.244166 -0.97681,1.22106 -1.46522,1.95366 -5.86103,8.547292 -17.82721,6.349415 -21.73455,-3.90732 -6.34939,-16.850341 -20.75766,-23.932381 -24.66501,-12.454611 -1.46522,4.884162 -1.22101,12.943045 0.97687,19.536651 1.70944,4.884163 0,12.210395 -3.41891,15.873498 -4.88416,5.372597 -12.69884,5.12838 -17.58297,-0.244166 -6.83785,-7.326232 -11.9662,-10.745143 -17.09458,-12.210395 -10.74514,-2.442069 -14.65247,5.616789 -8.54727,18.315592 1.22101,2.442095 2.19788,3.907346 5.37258,8.791483 1.70947,2.197877 2.44206,6.105197 2.44206,10.745169 0,5.372572 -4.39575,10.2567338 -10.25674,11.2335508 -2.93045,0.488409 -4.39572,0.244167 -9.52408,-2.442068 -26.61869,-13.1872368 -37.60805,4.395728 -13.18723,20.7576602 6.59363,4.395755 9.76832,12.942995 6.83779,18.804001 -2.44204,5.61679 -7.08201,7.81464 -14.40827,6.83782 -7.81461,-0.97684 -14.65246,-0.48841 -19.29238,1.95366 -11.72202,5.61679 -5.61681,16.60615 11.72195,21.49032 4.63998,1.22103 5.12839,1.46525 6.59362,2.44206 12.21041,7.81464 10.25673,21.49029 -3.41892,24.66501 -9.27991,1.95366 -15.14089,5.12835 -18.55981,9.76833 -6.59363,8.791476 1.46528,15.385086 17.82721,14.652456 9.27989,-0.24416 8.79148,-0.24416 14.89668,2.68629 8.79148,4.15155 8.54727,16.11774 -0.24416,21.49031 -9.76831,5.861 -15.8735,13.91986 -15.38509,20.26928 0.73262,7.57041 11.72199,8.79148 25.15342,2.44206 4.88415,-2.19788 7.57042,-2.68628 12.94303,-1.46525 9.2799,1.70947 12.69878,12.2104 6.59362,19.78085 -12.94305,16.11774 -10.98936,32.47967 3.41888,27.35128 4.15157,-1.46522 7.81467,-3.90731 13.43145,-9.03566 2.19788,-2.4421 3.66311,-3.66314 4.63992,-3.90735 13.18725,-6.1052 23.6882,2.19788 19.53668,15.14089 -6.83784,20.7577 2.44207,34.43334 14.65246,22.22292 2.68629,-2.68626 4.88417,-5.86098 7.32627,-10.98934 5.37257,-11.23358 16.11768,-14.89668 23.19972,-8.05885 2.68629,2.44207 3.66315,4.63994 3.90733,10.74514 0.73265,14.89668 7.32625,24.9092 14.65248,22.22292 z m -41.02694,-77.16973 c -14.16406,-1.46522 -21.24607,-18.5598 -11.96618,-29.54916 8.30308,-10.01252 23.93238,-8.30305 30.03758,3.17472 6.5936,12.6988 -3.6631,27.59548 -18.0714,26.37444 z m 73.26241,0 c -14.16407,-1.46522 -21.24611,-18.5598 -11.96622,-29.54916 8.3031,-10.01252 23.93241,-8.30305 30.03763,3.17472 6.5936,12.6988 -3.66316,27.59548 -18.07141,26.37444 z M 723.45917,94.439534 c -14.16405,-1.46523 -21.24607,-18.55981 -11.96617,-29.54915 8.30307,-10.01254 23.93235,-8.30307 30.03758,3.17469 6.5936,12.6988 -3.6631,27.59548 -18.07141,26.37446 z m 73.26237,0 c -14.16406,-1.46523 -21.24607,-18.55981 -11.96618,-29.54915 8.30308,-10.01254 23.93241,-8.30307 30.03758,3.17469 6.59361,12.6988 -3.6631,27.59548 -18.0714,26.37446 z m 73.26243,0 c -14.16407,-1.46523 -21.24607,-18.55981 -11.96619,-29.54915 8.30303,-10.01254 23.93236,-8.30307 30.03758,3.17469 6.5936,12.6988 -3.66316,27.59548 -18.07139,26.37446 z M 760.09036,21.177185 C 747.63577,19.956125 740.06532,6.0362868 745.9263,-5.1972902 c 6.83786,-13.1872368 25.39766,-13.1872368 32.23546,0 6.5936,12.698828 -3.6631,27.5955092 -18.0714,26.3744752 z m 73.26241,0 C 820.89815,19.956125 813.32772,6.0362868 819.1887,-5.1972902 c 6.83782,-13.1872368 25.39763,-13.1872368 32.23548,0 6.5936,12.698828 -3.66316,27.5955092 -18.07141,26.3744752 z"
           id="path4"
           style="fill:#cc0000;fill-opacity:1;stroke-width:0.955231"
           transform="matrix(1.0468663,0,0,1.0468663,83.98336,170.0589)" />
        <text
           xml:space="preserve"
           style="font-style:italic;font-variant:normal;font-weight:normal;font-stretch:normal;font-size:278.588px;font-family:'Fira Code Two iScript';-inkscape-font-specification:'Fira Code Two iScript Italic';letter-spacing:0px;fill:#cc0000;fill-opacity:1;stroke:none;stroke-width:4.77617;stroke-linecap:round;stroke-linejoin:round;stroke-miterlimit:20;stroke-dasharray:none;paint-order:stroke fill markers"
           x="780.15826"
           y="522.09412"
           id="text5"
           transform="matrix(1.0468663,0,0,1.0468663,83.98336,170.0589)"><tspan
             id="tspan5"
             x="780.15826"
             y="522.09412"
             style="font-style:normal;font-variant:normal;font-weight:600;font-stretch:normal;font-family:'Montserrat Alternates';-inkscape-font-specification:'Montserrat Alternates Semi-Bold';text-align:center;letter-spacing:0px;text-anchor:middle;fill:#cc0000;fill-opacity:1;stroke-width:4.77617">threshr</tspan></text>
        <text
           xml:space="preserve"
           style="font-weight:bold;font-size:26.6667px;font-family:FreeSans;-inkscape-font-specification:'FreeSans Bold';letter-spacing:0px;fill:#cc0000;paint-order:stroke fill markers"
           x="609.35004"
           y="268.07245"
           id="text6"><tspan
             id="tspan6"
             x="609.35004"
             y="268.07245"> </tspan></text>
        <text
           xml:space="preserve"
           style="font-weight:bold;font-size:26.6667px;font-family:FreeSans;-inkscape-font-specification:'FreeSans Bold';text-align:center;letter-spacing:0px;text-anchor:middle;fill:#cc0000;paint-order:stroke fill markers"
           x="609.35004"
           y="307.07245"
           id="text7"><tspan
             id="tspan7"
             x="613.90735"
             y="307.07245"> </tspan></text>
      </g>
      <path
         d="m 915.15835,508.86499 c -10.87469,-1.01159 -20.99066,-8.09277 -27.31316,-18.96744 l -1.26451,-2.27611 -1.2645,1.01159 c -3.54056,3.5406 -10.11595,7.33409 -14.92103,8.8515 -19.47326,6.06956 -38.18781,-6.32249 -42.4871,-28.32473 l -0.50582,-3.03481 -2.27611,1.01162 c -21.74933,8.59857 -42.99289,-3.03482 -46.78635,-25.28997 -0.5058,-4.04638 -0.25287,-11.88627 0.7587,-15.42685 v -0.75869 l -1.77029,0.25285 c -2.27611,0 -7.33408,-0.25285 -10.3689,-1.01158 -23.51966,-5.05799 -33.38272,-29.33635 -20.73778,-51.33858 1.51744,-2.52902 1.51744,-2.52902 0.50586,-2.7819 -0.50586,0 -2.02323,-0.5058 -3.54063,-1.2645 -26.55443,-10.62178 -30.34792,-40.96972 -7.58697,-59.43139 l 1.01159,-1.0116 -2.02321,-1.5174 c -22.76093,-17.95581 -16.94423,-50.07404 10.8747,-59.68421 1.0116,-0.25286 2.02318,-0.50576 2.02318,-0.7587 0,0 -0.50579,-0.7587 -1.01158,-1.5174 -15.67976,-25.54286 0.25285,-53.10886 30.60081,-53.10886 h 1.77031 v -0.75872 c -2.27611,-9.86306 -1.26451,-19.22034 2.78188,-26.30152 8.0928,-14.92109 25.54285,-20.48485 43.24581,-14.16237 1.26451,0.50582 2.27609,0.75873 2.27609,0.75873 0,0 0,-0.50582 0.25286,-1.01161 4.80512,-30.34792 33.88854,-41.47549 57.1553,-22.00225 l 1.77029,1.5174 1.01159,-1.7703 c 14.41524,-26.04864 45.26896,-26.30155 60.69585,-0.5058 l 1.26452,2.2761 1.26446,-1.26449 c 21.24356,-19.72617 51.84439,-9.35729 57.40819,19.72615 l 0.5058,3.0348 2.0232,-0.75873 c 22.0022,-8.59858 42.9929,2.52901 46.7864,24.78417 0.7586,4.04639 0.5058,12.13915 -0.5058,15.93265 0,0.50579 0,0.50579 2.0232,0.25286 2.2761,0 7.0812,0.25285 10.1159,1.0116 23.2668,5.05797 33.1298,29.08343 20.7378,51.08567 -0.7587,1.5174 -1.2645,2.52901 -1.2645,2.52901 0,0.25285 1.0116,0.50577 2.0232,0.7587 28.0718,9.35726 33.3827,41.47544 9.8631,60.44291 l -1.0116,1.01159 2.0231,1.51739 c 22.761,17.95588 16.9443,50.0741 -10.6217,59.68426 -1.2645,0.25286 -2.2761,0.50583 -2.2761,0.7587 0,0 0.5058,0.7587 1.0116,1.5174 6.5754,10.62179 7.8399,22.50804 3.7935,32.37112 -5.3109,12.64498 -18.7146,20.73777 -34.3943,20.73777 h -1.7704 v 0.7587 c 1.7704,7.83987 1.5174,15.42685 -0.7586,21.49644 -6.3226,17.95585 -25.2899,26.04863 -45.0161,18.96745 -2.7819,-1.0116 -2.529,-1.0116 -2.7819,1.77028 -4.8051,28.83056 -34.39435,39.45233 -57.15529,20.48486 l -1.77031,-1.5174 -1.01158,1.7703 c -7.33407,13.65658 -20.23192,20.99063 -33.3827,19.47323 z m 5.31084,-25.28994 c 5.56382,-1.77029 8.85149,-9.61018 10.36889,-23.51964 0.25286,-2.78192 1.01159,-4.80509 2.27611,-6.8283 0.50579,-0.50579 1.2645,-1.51736 1.77028,-2.27606 6.06959,-9.10441 18.46165,-6.82831 22.76095,4.29927 7.587,19.72614 23.51963,25.28994 26.04866,9.10436 0.7587,-4.04638 -0.25287,-11.88627 -1.7703,-16.69135 -1.77032,-5.05798 0,-12.64496 3.54058,-16.43847 5.05799,-5.56376 13.15078,-5.31086 18.20874,0.25286 9.3573,9.86311 16.4385,13.65658 23.2667,12.89787 6.8284,-0.75869 8.3458,-8.59857 3.2877,-18.96743 -1.2645,-2.78189 -2.2761,-4.29929 -5.5637,-9.35728 -1.7703,-2.2761 -2.529,-6.32249 -2.529,-11.12757 0,-5.56378 4.5522,-10.62178 10.6218,-11.63338 3.0348,-0.50579 4.5521,-0.25286 9.863,2.27609 8.5986,4.29929 15.6798,5.81669 21.2436,4.55221 11.6333,-3.28771 7.8398,-15.4269 -8.0928,-26.30155 -6.5754,-4.29929 -9.3573,-13.40367 -6.3225,-19.47326 2.529,-5.31091 7.3341,-7.587 14.6681,-6.5754 8.5986,1.26449 15.9328,0.25286 20.9907,-2.2761 11.3805,-6.57537 3.7935,-17.95583 -14.921,-22.50803 -8.8516,-2.2761 -14.9211,-10.62178 -13.1508,-17.70296 1.5174,-5.5638 4.805,-8.34568 11.8862,-9.86307 12.8979,-2.7819 21.2436,-9.10438 21.2436,-16.18557 0,-6.82827 -10.6217,-10.62177 -25.037,-9.10437 -4.2994,0.5058 -9.8631,-1.26449 -13.4037,-4.29929 -7.0811,-6.0696 -5.5637,-15.67974 3.2877,-21.24352 8.5985,-5.31091 13.9094,-11.63339 14.921,-17.95588 1.7703,-9.86308 -10.1159,-12.39206 -25.7956,-5.058 -9.1045,4.2993 -18.4617,2.27611 -22.0023,-4.80508 -2.529,-5.31087 -1.7704,-9.35725 3.0348,-15.67976 12.3921,-16.18556 9.6102,-31.86532 -4.8052,-26.80734 -4.2992,1.51741 -8.0927,4.04641 -13.9094,9.35729 -3.7935,3.7935 -4.5522,4.29929 -8.59859,5.56378 -5.81669,1.5174 -10.11595,0.7587 -13.90942,-3.03477 -3.79353,-3.79351 -4.55221,-7.83989 -2.52902,-14.16238 7.08119,-21.49645 -2.52902,-35.91172 -15.42687,-23.01385 -3.03478,3.28768 -5.31088,6.82827 -8.59858,13.65658 -3.28769,7.58697 -12.89787,11.63335 -19.47323,8.59858 -5.05798,-2.52901 -6.82829,-6.06961 -7.33408,-13.65658 -0.50585,-9.86307 -3.0348,-16.69137 -7.33408,-20.73775 -8.09278,-7.58698 -16.43851,1.5174 -17.95588,19.22036 -0.5058,4.55219 -1.01159,6.8283 -2.7819,9.10436 -0.25285,0.25286 -1.01158,1.26453 -1.51737,2.0232 -6.06962,8.8515 -18.46168,6.57539 -22.50809,-4.04639 -6.57537,-17.45004 -21.49643,-24.78413 -25.54284,-12.89787 -1.51737,5.058 -1.26447,13.4037 1.01163,20.23197 1.77028,5.05799 0,12.64496 -3.54058,16.43844 -5.058,5.56381 -13.1508,5.3109 -18.20876,-0.25286 -7.08122,-7.58697 -12.39208,-11.12756 -17.70298,-12.64497 -11.12757,-2.52898 -15.17396,5.8167 -8.85147,18.96746 1.26446,2.52901 2.27609,4.04641 5.56379,9.10438 1.77031,2.27609 2.52897,6.32247 2.52897,11.12758 0,5.56379 -4.55219,10.62178 -10.62177,11.63336 -3.03475,0.5058 -4.55218,0.25286 -9.86305,-2.52898 -27.56606,-13.65658 -38.94653,4.55217 -13.65657,21.49644 6.8283,4.5522 10.11598,13.40364 7.08115,19.47324 -2.52896,5.8167 -7.33406,8.09277 -14.92107,7.08118 -8.09273,-1.01161 -15.17395,-0.50579 -19.979,2.02319 -12.13921,5.8167 -5.81671,17.19717 12.13914,22.25517 4.80512,1.26449 5.31091,1.5174 6.82829,2.52897 12.64498,8.09277 10.62177,22.25514 -3.5406,25.54285 -9.61019,2.02319 -15.67976,5.31087 -19.22036,10.11599 -6.8283,9.10437 1.51743,15.93265 18.46168,15.17394 9.61017,-0.25285 9.10438,-0.25285 15.42686,2.7819 9.10437,4.29929 8.85148,16.69137 -0.25285,22.25515 -10.11596,6.06959 -16.43844,14.41527 -15.93265,20.99067 0.7587,7.83984 12.13918,9.10437 26.04864,2.52897 5.05798,-2.2761 7.83986,-2.78188 13.40367,-1.5174 9.61018,1.77032 13.15074,12.64498 6.8283,20.48486 -13.4037,16.69137 -11.38048,33.63562 3.54055,28.32471 4.29933,-1.51737 8.09281,-4.04637 13.90948,-9.35724 2.27611,-2.52902 3.79349,-3.79351 4.80506,-4.04641 13.65659,-6.32248 24.53127,2.2761 20.232,15.67976 -7.0812,21.49647 2.52898,35.65883 15.17394,23.01383 2.78189,-2.78186 5.058,-6.06957 7.58701,-11.38044 5.56378,-11.63339 16.69132,-15.42687 24.02541,-8.34567 2.78189,2.52898 3.79353,4.80507 4.04639,11.12756 0.75873,15.42685 7.58699,25.79572 15.17397,23.01384 z m -42.4871,-79.91621 c -14.66815,-1.51737 -22.00222,-19.22035 -12.39206,-30.60083 8.5986,-10.36887 24.78414,-8.59856 31.10663,3.28771 6.82827,13.15075 -3.79346,28.57761 -18.71457,27.31312 z m 75.86985,0 c -14.66818,-1.51737 -22.00227,-19.22035 -12.3921,-30.60083 8.5986,-10.36887 24.78417,-8.59856 31.10667,3.28771 6.82827,13.15075 -3.79353,28.57761 -18.71457,27.31312 z M 840.04719,327.78903 c -14.66815,-1.51738 -22.00222,-19.22036 -12.39205,-30.60081 8.59858,-10.36889 24.78412,-8.59859 31.10662,3.28767 6.82827,13.15076 -3.79346,28.57761 -18.71457,27.31314 z m 75.8698,0 c -14.66817,-1.51738 -22.00222,-19.22036 -12.39206,-30.60081 8.59859,-10.36889 24.78417,-8.59859 31.10663,3.28767 6.82828,13.15076 -3.79348,28.57761 -18.71457,27.31314 z m 75.86986,0 c -14.66817,-1.51738 -22.00222,-19.22036 -12.39207,-30.60081 8.59854,-10.36889 24.78412,-8.59859 31.10662,3.28767 6.8283,13.15076 -3.7935,28.57761 -18.71455,27.31314 z M 877.98209,251.91925 c -12.89785,-1.26452 -20.73773,-15.67976 -14.66815,-27.31316 7.08121,-13.65657 26.30156,-13.65657 33.38272,0 6.82827,13.1508 -3.79346,28.57765 -18.71457,27.31316 z m 75.86985,0 c -12.89788,-1.26452 -20.73775,-15.67976 -14.66818,-27.31316 7.08119,-13.65657 26.30155,-13.65657 33.38275,0 6.82827,13.1508 -3.79353,28.57765 -18.71457,27.31316 z"
         id="path1"
         style="fill:#cc0000;fill-opacity:1;stroke-width:0.989228" />
      <path
         style="font-weight:600;font-size:291.644px;font-family:'Montserrat Alternates';-inkscape-font-specification:'Montserrat Alternates Semi-Bold';text-align:center;letter-spacing:0px;text-anchor:middle;fill:#cc0000;stroke-width:6.86684;stroke-linecap:round;stroke-linejoin:round;stroke-miterlimit:20;paint-order:stroke fill markers"
         d="m 1389.6253,408.99485 c -7.6101,6.00801 -17.6234,8.81175 -28.0374,8.81175 -18.825,0 -29.6394,-11.21495 -29.6394,-32.04272 V 284.02822 h 57.2764 v -40.0534 h -57.2764 v -48.86516 h -50.0668 v 191.85581 c 0,47.26302 26.8358,72.09613 73.6983,72.09613 18.0239,0 36.0479,-4.80641 48.064,-14.41922 z m 176.6355,-169.02537 c -29.6396,0 -54.8732,9.61281 -71.2952,27.23631 V 159.0616 h -50.0667 v 297.19626 h 50.0667 V 348.11367 c 0,-42.85714 24.0322,-64.48599 59.6797,-64.48599 32.0427,0 50.8679,18.42458 50.8679,56.47531 v 116.15487 h 50.0667 V 333.69445 c 0,-64.48599 -38.0508,-93.72497 -89.3191,-93.72497 z m 200.6672,33.64485 v -31.24165 h -47.6635 v 213.88518 h 50.0668 V 352.51954 c 0,-43.6582 24.0321,-66.08811 62.0828,-66.08811 3.6048,0 7.2096,0.40053 11.6154,1.20159 v -47.66354 c -35.6475,0 -61.6822,11.21495 -76.1015,33.64485 z M 1985.2191,416.605 c -31.2416,0 -54.4726,-13.21764 -64.8865,-37.65021 l 163.8185,-32.04272 c -0.4007,-66.88919 -48.4648,-106.94259 -108.1442,-106.94259 -63.6849,0 -110.1469,45.66087 -110.1469,109.34579 0,63.68492 46.462,109.74633 118.1575,109.74633 36.8491,0 66.8892,-12.01602 85.7143,-34.84646 l -26.4352,-30.84113 c -15.6208,15.62084 -34.0455,23.23099 -58.0775,23.23099 z m -9.2122,-136.58212 c 30.04,0 52.4698,17.6235 59.279,43.65821 l -120.9613,23.23098 v -0.40054 c 0,-40.85448 25.2337,-66.48865 61.6823,-66.48865 z m 222.2964,179.03872 c 60.0801,0 96.9294,-26.03471 96.9294,-66.08812 0,-83.71161 -132.1762,-45.26033 -132.1762,-88.51802 0,-14.0187 14.419,-24.03205 44.8597,-24.03205 20.4272,0 40.8545,4.00534 61.2817,16.02136 l 19.2256,-38.05073 c -19.2256,-11.61549 -51.6689,-18.42456 -80.1068,-18.42456 -57.6768,0 -94.1254,26.43524 -94.1254,66.88918 0,85.31376 132.1762,46.86249 132.1762,87.71697 0,14.81975 -13.2176,23.6315 -44.8598,23.6315 -26.8359,0 -55.6742,-8.81175 -74.4994,-21.2283 l -19.2256,38.05073 c 19.2256,13.61816 54.8731,24.03204 90.5206,24.03204 z m 261.5486,-219.09212 c -29.6396,0 -54.8732,9.61281 -71.2952,27.23631 V 159.0616 H 2338.49 v 297.19626 h 50.0667 V 348.11367 c 0,-42.85714 24.0321,-64.48599 59.6797,-64.48599 32.0427,0 50.8678,18.42458 50.8678,56.47531 v 116.15487 h 50.0668 V 333.69445 c 0,-64.48599 -38.0508,-93.72497 -89.3191,-93.72497 z m 200.6674,33.64485 v -31.24165 h -47.6637 v 213.88518 h 50.0667 V 352.51954 c 0,-43.6582 24.0322,-66.08811 62.0829,-66.08811 3.6048,0 7.2097,0.40053 11.6154,1.20159 v -47.66354 c -35.6475,0 -61.6821,11.21495 -76.1013,33.64485 z"
         id="path3"
         aria-label="threshr" />
      <text
         xml:space="preserve"
         style="font-weight:bold;font-size:87.3542px;font-family:FreeSans;-inkscape-font-specification:'FreeSans Bold';text-align:center;letter-spacing:0px;text-anchor:middle;fill:#cc0000;stroke-width:3.2709;paint-order:stroke fill markers"
         x="2197.7585"
         y="571.9563"
         id="text3"><tspan
           x="2197.7585"
           y="571.9563"
           style="font-style:normal;font-variant:normal;font-weight:normal;font-stretch:normal;font-size:87.3542px;font-family:'Montserrat Alternates';-inkscape-font-specification:'Montserrat Alternates';text-align:center;text-anchor:middle;stroke-width:3.2709"
           id="tspan3">part of the Graqr project</tspan></text>
      <text
         xml:space="preserve"
         style="font-weight:bold;font-size:87.3542px;font-family:FreeSans;-inkscape-font-specification:'FreeSans Bold';text-align:center;letter-spacing:0px;text-anchor:middle;fill:#cc0000;stroke-width:3.2709;paint-order:stroke fill markers"
         x="-506.24146"
         y="1115.9563"
         id="text8"><tspan
           x="-506.24142"
           y="1115.9563"
           style="font-style:normal;font-variant:normal;font-weight:normal;font-stretch:normal;font-size:87.3542px;font-family:'Montserrat Alternates';-inkscape-font-specification:'Montserrat Alternates';text-align:center;text-anchor:middle;stroke-width:3.2709"
           id="tspan8">part of the Graqr project</tspan></text>
    </g>
  </g>
</svg>
