<?xml version="1.0" encoding="UTF-8" standalone="no"?>
<!-- Created with Inkscape (http://www.inkscape.org/) -->

<svg
        width="1059.2505"
        height="670.84772"
        viewBox="0 0 1059.2505 670.84776"
        version="1.1"
        id="svg1"
        inkscape:version="1.3 (0e150ed6c4, 2023-07-21)"
        sodipodi:docname="social-preview.svg"
        inkscape:export-filename="social-preview.png"
        inkscape:export-xdpi="96"
        inkscape:export-ydpi="96"
        xmlns:inkscape="http://www.inkscape.org/namespaces/inkscape"
        xmlns:sodipodi="http://sodipodi.sourceforge.net/DTD/sodipodi-0.dtd"
        xmlns="http://www.w3.org/2000/svg"
>
  <sodipodi:namedview
     id="namedview1"
     pagecolor="#3d3d3d"
     bordercolor="#000000"
     borderopacity="1"
     inkscape:showpageshadow="0"
     inkscape:pageopacity="0"
     inkscape:pagecheckerboard="1"
     inkscape:deskcolor="#4e4e4e"
     inkscape:document-units="px"
     showborder="false"
     inkscape:zoom="0.25"
     inkscape:cx="340"
     inkscape:cy="-186"
     inkscape:window-width="1920"
     inkscape:window-height="1009"
     inkscape:window-x="-8"
     inkscape:window-y="-8"
     inkscape:window-maximized="1"
     inkscape:current-layer="g1"
     showgrid="false" />
  <defs
     id="defs1" />
  <g
     inkscape:label="Layer 1"
     inkscape:groupmode="layer"
     id="layer1"
     transform="translate(-378.22476,-47.815438)">
    <g
       id="g1">
      <g
         id="g2"
         transform="matrix(1.0468663,0,0,1.0468663,29.234477,18.617766)"
         style="stroke-width:0.955232">
        <g
                id="g3"
                transform="translate(52.297876,144.66139)"/>
      </g>
      <g
              id="g8">
        <path
                d="m 917.27739,451.97208 c -10.9931,-1.02261 -21.21922,-8.18089 -27.61056,-19.17397 l -1.27828,-2.30089 -1.27827,1.0226 c -3.57911,3.57915 -10.22609,7.41395 -15.08349,8.94788 -19.6853,6.13565 -38.60362,-6.39133 -42.94972,-28.63314 l -0.51133,-3.06786 -2.30089,1.02264 c -21.98615,8.6922 -43.46102,-3.06786 -47.29579,-25.56534 -0.5113,-4.09044 -0.25562,-12.01569 0.76696,-15.59483 v -0.76696 l -1.78956,0.25561 c -2.30089,0 -7.41394,-0.25561 -10.4818,-1.0226 -23.77576,-5.11306 -33.74621,-29.65577 -20.96359,-51.89758 1.53397,-2.55655 1.53397,-2.55655 0.51137,-2.81219 -0.51137,0 -2.04526,-0.5113 -3.57918,-1.27826 -26.84357,-10.73744 -30.67836,-41.41582 -7.66958,-60.07851 l 1.0226,-1.02262 -2.04523,-1.53392 c -23.00877,-18.15132 -17.12873,-50.61927 10.9931,-60.33408 1.02262,-0.25561 2.04521,-0.51127 2.04521,-0.76696 0,0 -0.51129,-0.76696 -1.02259,-1.53392 -15.85049,-25.82097 0.2556,-53.68713 30.93401,-53.68713 h 1.78958 v -0.76698 c -2.30089,-9.97045 -1.27828,-19.42962 2.81217,-26.5879 8.18092,-15.083563 25.82097,-20.707901 43.71669,-14.316576 1.27828,0.511326 2.30088,0.766988 2.30088,0.766988 0,0 0,-0.511325 0.25561,-1.022624 4.85744,-30.678362 34.25753,-41.927098 57.77763,-22.24182 l 1.78957,1.533921 1.0226,-1.789584 c 14.5722,-26.332264 45.76187,-26.58793 61.35674,-0.511298 l 1.27829,2.300882 1.27822,-1.278258 c 21.47487,-19.940962 52.40894,-9.459171 58.03324,19.940936 l 0.5113,3.067845 2.0453,-0.766988 c 22.2418,-8.692208 43.461,2.556546 47.2958,25.054026 0.7669,4.09045 0.5113,12.27133 -0.5113,16.10614 0,0.51129 0,0.51129 2.0452,0.25561 2.3009,0 7.1583,0.2556 10.2261,1.02262 23.5201,5.11304 33.4905,29.4001 20.9636,51.6419 -0.767,1.53392 -1.2783,2.55655 -1.2783,2.55655 0,0.2556 1.0226,0.51127 2.0452,0.76696 28.3775,9.45914 33.7462,41.92704 9.9705,61.10104 l -1.0226,1.0226 2.0452,1.53392 c 23.0088,18.15139 17.1288,50.61933 -10.7374,60.33413 -1.2783,0.25561 -2.3009,0.51133 -2.3009,0.76696 0,0 0.5113,0.76696 1.0226,1.53392 6.647,10.73744 7.9253,22.75312 3.8348,32.72359 -5.3687,12.78267 -18.9183,20.96357 -34.7688,20.96357 h -1.7896 v 0.76697 c 1.7896,7.92524 1.5339,15.59483 -0.7669,21.73051 -6.3914,18.15136 -25.5653,26.33226 -45.5063,19.17398 -2.8122,-1.02262 -2.5565,-1.02262 -2.8122,1.78955 -4.8574,29.14448 -34.7688,39.88191 -57.77757,20.70791 l -1.78959,-1.53392 -1.02259,1.78957 c -7.41393,13.80528 -20.45222,21.21919 -33.74619,19.68527 z m 5.36867,-25.56531 c 5.6244,-1.78957 8.94787,-9.71482 10.48179,-23.77573 0.25561,-2.81221 1.0226,-4.85741 2.30089,-6.90265 0.5113,-0.5113 1.27827,-1.53389 1.78956,-2.30085 6.13567,-9.20354 18.66267,-6.90266 23.00878,4.34609 7.66961,19.94092 23.77572,25.56531 26.33229,9.20349 0.76696,-4.09044 -0.25562,-12.01569 -1.78958,-16.87309 -1.78959,-5.11306 0,-12.78265 3.57913,-16.61746 5.11307,-5.62436 13.29398,-5.3687 18.40698,0.25561 9.4592,9.9705 16.6175,13.80528 23.5201,13.03831 6.9027,-0.76695 8.4366,-8.6922 3.3235,-19.17397 -1.2783,-2.81218 -2.3009,-4.3461 -5.6243,-9.45917 -1.7896,-2.30088 -2.5566,-6.39133 -2.5566,-11.24873 0,-5.62436 4.6018,-10.73743 10.7375,-11.76005 3.0678,-0.5113 4.6017,-0.25561 9.9704,2.30088 8.6922,4.3461 15.8505,5.88002 21.4749,4.60177 11.76,-3.32351 7.9252,-15.59487 -8.1809,-26.58793 -6.647,-4.3461 -9.4592,-13.54962 -6.3914,-19.6853 2.5566,-5.36873 7.414,-7.66961 14.8279,-6.64699 8.6922,1.27826 16.1062,0.25561 21.2192,-2.30088 11.5044,-6.64697 3.8348,-18.15135 -15.0835,-22.75311 -8.9479,-2.30089 -15.0835,-10.73744 -13.2939,-17.89572 1.5339,-5.62438 4.8573,-8.43655 12.0156,-9.97047 13.0383,-2.81219 21.4749,-9.20351 21.4749,-16.3618 0,-6.90262 -10.7374,-10.73743 -25.3096,-9.2035 -4.3462,0.5113 -9.9705,-1.27826 -13.5497,-4.34611 -7.1582,-6.13569 -5.6243,-15.85047 3.3235,-21.47483 8.6922,-5.36873 14.0609,-11.76006 15.0835,-18.15138 1.7896,-9.97047 -10.2261,-12.52699 -26.0765,-5.11307 -9.2036,4.34611 -18.6627,2.30089 -22.2419,-4.8574 -2.5565,-5.3687 -1.7896,-9.45914 3.0679,-15.85049 12.527,-16.3618 9.7148,-32.21229 -4.8575,-27.09923 -4.346,1.53393 -8.1808,4.09047 -14.0609,9.45917 -3.8348,3.83481 -4.6017,4.34611 -8.6922,5.62437 -5.88002,1.53392 -10.22609,0.76696 -14.06087,-3.06782 -3.83483,-3.83481 -4.60177,-7.92525 -2.55655,-14.31658 7.15829,-21.730517 -2.55656,-36.302752 -15.59485,-23.264439 -3.06782,3.323481 -5.36871,6.902623 -8.69221,13.805279 -3.32348,7.66958 -13.0383,11.76002 -19.68526,8.6922 -5.11305,-2.55654 -6.90264,-6.13569 -7.41394,-13.805271 -0.51135,-9.970468 -3.06784,-16.873118 -7.41393,-20.96356 -8.1809,-7.669585 -16.6175,1.533922 -18.1514,19.429638 -0.5113,4.601767 -1.0226,6.902653 -2.81219,9.203503 -0.2556,0.25561 -1.02259,1.27829 -1.53389,2.04523 -6.13571,8.94787 -18.6627,6.64698 -22.75317,-4.09045 -6.64696,-17.64005 -21.73049,-25.053999 -25.82096,-13.038308 -1.53389,5.113064 -1.27824,13.549638 1.02265,20.452258 1.78955,5.11307 0,12.78265 -3.57914,16.61743 -5.11307,5.62439 -13.29399,5.36873 -18.40702,-0.25561 -7.15832,-7.66958 -12.52701,-11.24872 -17.89574,-12.78265 -11.24873,-2.55652 -15.33918,5.88003 -8.94785,19.17398 1.27823,2.55655 2.30088,4.09047 5.62437,9.20351 1.78959,2.30088 2.55651,6.39132 2.55651,11.24875 0,5.62437 -4.60176,10.73743 -10.73743,11.76003 -3.06779,0.5113 -4.60174,0.25561 -9.97044,-2.55652 -27.86621,-13.80528 -39.3706,4.60174 -13.80527,21.73049 6.90265,4.60177 10.22613,13.54959 7.15825,19.68528 -2.55649,5.88003 -7.41391,8.18088 -15.08353,7.15828 -8.18085,-1.02262 -15.33917,-0.5113 -20.19654,2.04522 -12.27139,5.88003 -5.88005,17.38442 12.27131,22.49749 4.85744,1.27826 5.36874,1.53393 6.90264,2.55651 12.78267,8.18089 10.73743,22.49747 -3.57915,25.82097 -9.71483,2.04522 -15.85049,5.3687 -19.42964,10.22614 -6.90265,9.2035 1.53395,16.10613 18.6627,15.33916 9.71481,-0.2556 9.20351,-0.2556 15.59484,2.81219 9.2035,4.34611 8.94785,16.87312 -0.25561,22.49748 -10.22611,6.13568 -16.61743,14.57223 -16.10613,21.21922 0.76696,7.92521 12.27136,9.20351 26.33227,2.55651 5.11305,-2.30088 7.92522,-2.81217 13.54962,-1.53392 9.71482,1.78959 13.29393,12.78266 6.90264,20.70791 -13.54964,16.87312 -11.50439,34.00187 3.57911,28.63313 4.34614,-1.53389 8.18092,-4.09043 14.06093,-9.45913 2.30089,-2.55655 3.83479,-3.83481 4.85738,-4.09047 13.80529,-6.39133 24.79838,2.30089 20.45229,15.85049 -7.1583,21.73054 2.55652,36.0471 15.33917,23.26442 2.81218,-2.81215 5.11307,-6.13566 7.66962,-11.50436 5.62436,-11.76006 16.87306,-15.59484 24.28701,-8.43654 2.81218,2.55652 3.83483,4.85739 4.09045,11.24872 0.76699,15.59483 7.6696,26.0766 15.33919,23.26443 z m -42.94972,-80.78639 c -14.82787,-1.53389 -22.24179,-19.42963 -12.52699,-30.93402 8.69222,-10.48177 25.054,-8.69219 31.44533,3.32351 6.90262,13.29394 -3.83477,28.88877 -18.91834,27.61051 z m 76.69595,0 c -14.82789,-1.53389 -22.24184,-19.42963 -12.52703,-30.93402 8.69223,-10.48177 25.05403,-8.69219 31.44538,3.32351 6.90262,13.29394 -3.83484,28.88877 -18.91835,27.61051 z M 841.34838,268.92447 c -14.82786,-1.5339 -22.24179,-19.42964 -12.52698,-30.93401 8.69221,-10.48179 25.05398,-8.69221 31.44533,3.32347 6.90262,13.29395 -3.83477,28.88878 -18.91835,27.61054 z m 76.69591,0 c -14.82788,-1.5339 -22.24179,-19.42964 -12.52699,-30.93401 8.69221,-10.48179 25.05403,-8.69221 31.44533,3.32347 6.90263,13.29395 -3.83478,28.88878 -18.91834,27.61054 z m 76.69597,0 c -14.82789,-1.5339 -22.24179,-19.42964 -12.527,-30.93401 8.69216,-10.48179 25.05394,-8.69221 31.44534,3.32347 6.9026,13.29395 -3.8348,28.88878 -18.91834,27.61054 z M 879.69634,192.22858 c -13.03829,-1.27829 -20.96354,-15.85049 -14.82787,-27.61055 7.15832,-13.80527 26.58795,-13.80527 33.74621,0 6.90262,13.29398 -3.83477,28.88881 -18.91834,27.61055 z m 76.69595,0 c -13.03832,-1.27829 -20.96355,-15.85049 -14.82789,-27.61055 7.15829,-13.80527 26.58793,-13.80527 33.74624,0 6.90262,13.29398 -3.83484,28.88881 -18.91835,27.61055 z"
                id="path2"
                style="fill:#cc0000;fill-opacity:1;stroke-width:0.999999"/>
        <path
                style="font-weight:600;font-size:291.644px;font-family:'Montserrat Alternates';-inkscape-font-specification:'Montserrat Alternates Semi-Bold';text-align:center;letter-spacing:0px;text-anchor:middle;fill:#cc0000;stroke-width:5.00001;stroke-linecap:round;stroke-linejoin:round;stroke-miterlimit:20;paint-order:stroke fill markers"
                d="m 456.677,682.20765 c -5.54124,4.37466 -12.83234,6.41617 -20.41509,6.41617 -13.70726,0 -21.58165,-8.16603 -21.58165,-23.33152 v -74.07758 h 41.70509 v -29.1644 h -41.70509 v -35.58057 h -36.4555 v 139.69748 c 0,34.41399 19.54014,52.49592 53.66249,52.49592 13.12398,0 26.24797,-3.49973 34.99729,-10.49918 z M 585.29197,559.13388 c -21.58166,0 -39.95523,6.99945 -51.91264,19.83179 v -78.74388 h -36.4555 v 216.39985 h 36.4555 v -78.74388 c 0,-31.20591 17.49865,-46.95469 43.45496,-46.95469 23.33152,0 37.03879,13.41563 37.03879,41.12181 v 84.57676 h 36.4555 v -89.24306 c 0,-46.95469 -27.70618,-68.2447 -65.03661,-68.2447 z m 146.11347,24.49809 V 560.88374 H 696.6998 v 155.7379 h 36.45551 v -75.5358 c 0,-31.78919 17.49864,-48.12126 45.20482,-48.12126 2.62479,0 5.24959,0.29165 8.45767,0.87493 v -34.70563 c -25.95631,0 -44.91317,8.16603 -55.41236,24.49809 z m 158.94595,104.11692 c -22.74823,0 -39.66359,-9.62426 -47.24633,-27.41454 l 119.2824,-23.33152 c -0.29164,-48.70455 -35.28893,-77.86895 -78.74388,-77.86895 -46.3714,0 -80.20211,33.24741 -80.20211,79.61881 0,46.3714 33.83071,79.91046 86.03499,79.91046 26.83125,0 48.70455,-8.74932 62.41181,-25.37303 l -19.2485,-22.45659 c -11.37412,11.37412 -24.78974,16.91536 -42.28838,16.91536 z m -6.70781,-99.45061 c 21.8733,0 38.20536,12.83233 43.16331,31.78919 l -88.07649,16.91536 v -0.29165 c 0,-29.74769 18.37357,-48.4129 44.91318,-48.4129 z m 161.86252,130.36487 c 43.7466,0 70.5779,-18.95686 70.5779,-48.12126 0,-60.9536 -96.2425,-32.95577 -96.2425,-64.45333 0,-10.20754 10.4991,-17.49864 32.6641,-17.49864 14.8738,0 29.7477,2.91644 44.6215,11.66576 l 13.9989,-27.70618 c -13.9989,-8.45768 -37.6221,-13.41562 -58.3288,-13.41562 -41.9967,0 -68.53632,19.2485 -68.53632,48.70455 0,62.12017 96.24252,34.12235 96.24252,63.87004 0,10.79082 -9.6242,17.20699 -32.6641,17.20699 -19.5402,0 -40.5385,-6.41617 -54.24581,-15.45713 l -13.99891,27.70618 c 13.99891,9.9159 39.95522,17.49864 65.91152,17.49864 z m 190.4434,-159.52927 c -21.5817,0 -39.9553,6.99945 -51.9127,19.83179 v -78.74388 h -36.4555 v 216.39985 h 36.4555 v -78.74388 c 0,-31.20591 17.4987,-46.95469 43.455,-46.95469 23.3315,0 37.0388,13.41563 37.0388,41.12181 v 84.57676 h 36.4555 v -89.24306 c 0,-46.95469 -27.7062,-68.2447 -65.0366,-68.2447 z m 146.1135,24.49809 v -22.74823 h -34.7057 v 155.7379 h 36.4555 v -75.5358 c 0,-31.78919 17.4987,-48.12126 45.2049,-48.12126 2.6248,0 5.2496,0.29165 8.4576,0.87493 v -34.70563 c -25.9563,0 -44.9131,8.16603 -55.4123,24.49809 z"
                id="text42"
                aria-label="threshr"/>
      </g>
      <text
              xml:space="preserve"
              style="font-weight:bold;font-size:26.6667px;font-family:FreeSans;-inkscape-font-specification:'FreeSans Bold';letter-spacing:0px;fill:#cc0000;paint-order:stroke fill markers"
              x="609.35004"
              y="268.07245"
              id="text2"><tspan
           sodipodi:role="line"
           id="tspan2"
           x="609.35004"
           y="268.07245"> </tspan></text>
      <text
              xml:space="preserve"
              style="font-weight:bold;font-size:26.6667px;font-family:FreeSans;-inkscape-font-specification:'FreeSans Bold';text-align:center;letter-spacing:0px;text-anchor:middle;fill:#cc0000;paint-order:stroke fill markers"
              x="609.35004"
              y="307.07245"
              id="text4"><tspan
           sodipodi:role="line"
           id="tspan4"
           x="613.0567"
           y="307.07245"> </tspan></text>
      <g
              id="g7"
              transform="translate(-1568)">
        <path
                d="m 795.98897,269.29244 c -10.50096,-0.97683 -20.26927,-7.81465 -26.37448,-18.31559 l -1.22106,-2.19788 -1.22104,0.97682 c -3.41888,3.41892 -9.76829,7.08204 -14.40823,8.5473 -18.80403,5.86097 -36.87541,-6.1052 -41.02694,-27.35129 l -0.48844,-2.93051 -2.19788,0.97685 c -21.00187,8.30307 -41.51535,-2.93051 -45.17845,-24.42082 -0.48841,-3.90732 -0.24417,-11.47777 0.73263,-14.89668 v -0.73262 l -1.70945,0.24416 c -2.19788,0 -7.08203,-0.24416 -10.01254,-0.97682 -22.71137,-4.88416 -32.23546,-28.32813 -20.02509,-49.57422 1.46529,-2.4421 1.46529,-2.4421 0.48847,-2.68629 -0.48847,0 -1.95369,-0.48841 -3.41894,-1.22104 C 604.2857,124.47707 600.62258,95.172104 622.6013,77.344914 l 0.97682,-0.97684 -1.95367,-1.46525 c -21.97871,-17.33872 -16.36191,-48.353144 10.50096,-57.633036 0.97684,-0.244166 1.95365,-0.488383 1.95365,-0.732625 0,0 -0.4884,-0.732626 -0.97681,-1.465252 -15.14089,-24.6650072 0.24416,-51.283647 29.54915,-51.283647 h 1.70946 v -0.732651 c -2.19788,-9.524084 -1.22105,-18.559784 2.68628,-25.397607 7.81467,-14.408297 24.66501,-19.780843 41.75957,-13.675646 1.22106,0.488434 2.19788,0.732651 2.19788,0.732651 0,0 0,-0.488434 0.24416,-0.976843 4.63998,-29.304948 32.72389,-40.050098 55.19103,-21.246094 l 1.70946,1.46525 0.97682,-1.709468 c 13.91983,-25.153416 43.71319,-25.397636 58.60991,-0.488408 l 1.22106,2.197876 1.221,-1.221033 c 20.51348,-19.048241 50.06264,-9.035701 55.43521,19.048217 l 0.48841,2.930503 1.95369,-0.732651 c 21.24609,-8.303074 41.51535,2.442094 45.17845,23.932406 0.73262,3.907321 0.48841,11.721961 -0.48841,15.38509 0,0.488408 0,0.488408 1.95368,0.244166 2.19788,0 6.8378,0.244165 9.76831,0.976842 22.46712,4.884138 31.9912,28.0839168 20.02503,49.329987 -0.73261,1.465252 -1.221,2.442094 -1.221,2.442094 0,0.244166 0.97681,0.488383 1.95365,0.732626 27.1071,9.035675 32.23543,40.050043 9.52411,58.365663 l -0.97687,0.97682 1.95369,1.46525 c 21.97874,17.33878 16.36193,48.353196 -10.25672,57.633076 -1.22105,0.24417 -2.19786,0.48844 -2.19786,0.73263 0,0 0.48839,0.73262 0.97681,1.46525 6.34942,10.25674 7.57044,21.7345 3.66313,31.25861 -5.12841,12.21041 -18.0714,20.02507 -33.21228,20.02507 h -1.70947 v 0.73263 c 1.70947,7.57044 1.46523,14.89668 -0.73262,20.75768 -6.1052,17.33875 -24.42078,25.15341 -43.46903,18.31559 -2.68629,-0.97684 -2.44207,-0.97684 -2.68629,1.70944 -4.63992,27.83973 -33.21228,38.09647 -55.19099,19.78085 l -1.70947,-1.46525 -0.97681,1.70946 c -7.08202,13.18724 -19.53661,20.26924 -32.23544,18.80399 z m 5.12833,-24.4208 c 5.3726,-1.70945 8.54729,-9.2799 10.01254,-22.71133 0.24416,-2.68631 0.97682,-4.63995 2.19788,-6.59363 0.48841,-0.48841 1.22104,-1.46522 1.70944,-2.19785 5.86099,-8.79151 17.82718,-6.59364 21.97872,4.15153 7.32626,19.0482 22.71133,24.42079 25.15344,8.79146 0.73263,-3.90732 -0.24417,-11.47777 -1.70946,-16.11771 -1.70947,-4.88416 0,-12.21039 3.4189,-15.87353 4.88417,-5.37256 12.69883,-5.12835 17.58297,0.24417 9.0357,9.52414 15.87352,13.18724 22.46715,12.45461 6.59362,-0.73262 8.05884,-8.30307 3.1747,-18.31559 -1.22106,-2.68628 -2.19788,-4.15153 -5.37257,-9.0357 -1.70947,-2.19787 -2.44209,-6.1052 -2.44209,-10.74514 0,-5.37257 4.39572,-10.25674 10.25676,-11.23358 2.93045,-0.48841 4.39572,-0.24416 9.52407,2.19788 8.30308,4.15153 15.14093,5.61678 20.51348,4.39575 11.23355,-3.17472 7.57045,-14.89671 -7.81466,-25.39763 -6.34939,-4.15154 -9.03566,-12.94303 -6.10521,-18.80403 2.4421,-5.12838 7.08205,-7.32625 14.16405,-6.34941 8.30308,1.22103 15.38513,0.24416 20.26929,-2.19788 10.98933,-6.34939 3.66313,-17.338746 -14.40825,-21.734496 -8.54732,-2.19788 -14.40829,-10.25674 -12.69883,-17.09456 1.46525,-5.37258 4.63993,-8.05886 11.47777,-9.52411 12.45458,-2.68629 20.51344,-8.79148 20.51344,-15.62931 0,-6.5936 -10.2567,-10.25673 -24.17654,-8.79148 -4.15157,0.48841 -9.52413,-1.22103 -12.94305,-4.151537 -6.8378,-5.861005 -5.37257,-15.140872 3.1747,-20.513444 8.30307,-5.1283802 13.43145,-11.2335772 14.40827,-17.3387742 1.70947,-9.5241078 -9.76831,-11.9661768 -24.90918,-4.884163 -8.79151,4.151537 -17.82721,2.197877 -21.24611,-4.6399448 -2.44208,-5.128355 -1.70947,-9.035675 2.9305,-15.140898 11.96618,-15.629306 9.27989,-30.770204 -4.63997,-25.886041 -4.15151,1.465252 -7.81462,3.907346 -13.43143,9.0357 -3.66311,3.663129 -4.39574,4.151538 -8.30307,5.372572 -5.6168,1.465252 -9.76831,0.732626 -13.43141,-2.930477 -3.66315,-3.663128 -4.39576,-7.570449 -2.4421,-13.675647 6.83783,-20.757686 -2.44211,-34.677549 -14.8967,-22.222937 -2.93048,3.174695 -5.12836,6.593605 -8.30307,13.187237 -3.1747,7.326232 -12.4546,11.233552 -18.80399,8.303075 -4.88415,-2.442095 -6.59362,-5.861006 -7.08203,-13.187238 -0.48846,-9.524109 -2.9305,-16.11774 -7.08202,-20.02506 -7.81466,-7.326232 -15.87357,1.465251 -17.3388,18.559808 -0.48841,4.395755 -0.97682,6.593632 -2.68629,8.791484 -0.24416,0.244166 -0.97681,1.22106 -1.46522,1.95366 -5.86103,8.547292 -17.82721,6.349415 -21.73455,-3.90732 -6.34939,-16.850341 -20.75766,-23.932381 -24.66501,-12.454611 -1.46522,4.884162 -1.22101,12.943045 0.97687,19.536651 1.70944,4.884163 0,12.210395 -3.41891,15.873498 -4.88416,5.372597 -12.69884,5.12838 -17.58297,-0.244166 -6.83785,-7.326232 -11.9662,-10.745143 -17.09458,-12.210395 -10.74514,-2.442069 -14.65247,5.616789 -8.54727,18.315592 1.22101,2.442095 2.19788,3.907346 5.37258,8.791483 1.70947,2.197877 2.44206,6.105197 2.44206,10.745169 0,5.372572 -4.39575,10.2567338 -10.25674,11.2335508 -2.93045,0.488409 -4.39572,0.244167 -9.52408,-2.442068 -26.61869,-13.1872368 -37.60805,4.395728 -13.18723,20.7576602 6.59363,4.395755 9.76832,12.942995 6.83779,18.804001 -2.44204,5.61679 -7.08201,7.81464 -14.40827,6.83782 -7.81461,-0.97684 -14.65246,-0.48841 -19.29238,1.95366 -11.72202,5.61679 -5.61681,16.60615 11.72195,21.49032 4.63998,1.22103 5.12839,1.46525 6.59362,2.44206 12.21041,7.81464 10.25673,21.49029 -3.41892,24.66501 -9.27991,1.95366 -15.14089,5.12835 -18.55981,9.76833 -6.59363,8.791476 1.46528,15.385086 17.82721,14.652456 9.27989,-0.24416 8.79148,-0.24416 14.89668,2.68629 8.79148,4.15155 8.54727,16.11774 -0.24416,21.49031 -9.76831,5.861 -15.8735,13.91986 -15.38509,20.26928 0.73262,7.57041 11.72199,8.79148 25.15342,2.44206 4.88415,-2.19788 7.57042,-2.68628 12.94303,-1.46525 9.2799,1.70947 12.69878,12.2104 6.59362,19.78085 -12.94305,16.11774 -10.98936,32.47967 3.41888,27.35128 4.15157,-1.46522 7.81467,-3.90731 13.43145,-9.03566 2.19788,-2.4421 3.66311,-3.66314 4.63992,-3.90735 13.18725,-6.1052 23.6882,2.19788 19.53668,15.14089 -6.83784,20.7577 2.44207,34.43334 14.65246,22.22292 2.68629,-2.68626 4.88417,-5.86098 7.32627,-10.98934 5.37257,-11.23358 16.11768,-14.89668 23.19972,-8.05885 2.68629,2.44207 3.66315,4.63994 3.90733,10.74514 0.73265,14.89668 7.32625,24.9092 14.65248,22.22292 z m -41.02694,-77.16973 c -14.16406,-1.46522 -21.24607,-18.5598 -11.96618,-29.54916 8.30308,-10.01252 23.93238,-8.30305 30.03758,3.17472 6.5936,12.6988 -3.6631,27.59548 -18.0714,26.37444 z m 73.26241,0 c -14.16407,-1.46522 -21.24611,-18.5598 -11.96622,-29.54916 8.3031,-10.01252 23.93241,-8.30305 30.03763,3.17472 6.5936,12.6988 -3.66316,27.59548 -18.07141,26.37444 z M 723.45917,94.439534 c -14.16405,-1.46523 -21.24607,-18.55981 -11.96617,-29.54915 8.30307,-10.01254 23.93235,-8.30307 30.03758,3.17469 6.5936,12.6988 -3.6631,27.59548 -18.07141,26.37446 z m 73.26237,0 c -14.16406,-1.46523 -21.24607,-18.55981 -11.96618,-29.54915 8.30308,-10.01254 23.93241,-8.30307 30.03758,3.17469 6.59361,12.6988 -3.6631,27.59548 -18.0714,26.37446 z m 73.26243,0 c -14.16407,-1.46523 -21.24607,-18.55981 -11.96619,-29.54915 8.30303,-10.01254 23.93236,-8.30307 30.03758,3.17469 6.5936,12.6988 -3.66316,27.59548 -18.07139,26.37446 z M 760.09036,21.177185 C 747.63577,19.956125 740.06532,6.0362868 745.9263,-5.1972902 c 6.83786,-13.1872368 25.39766,-13.1872368 32.23546,0 6.5936,12.698828 -3.6631,27.5955092 -18.0714,26.3744752 z m 73.26241,0 C 820.89815,19.956125 813.32772,6.0362868 819.1887,-5.1972902 c 6.83782,-13.1872368 25.39763,-13.1872368 32.23548,0 6.5936,12.698828 -3.66316,27.5955092 -18.07141,26.3744752 z"
                id="path4"
                style="fill:#cc0000;fill-opacity:1;stroke-width:0.955231"
                transform="matrix(1.0468663,0,0,1.0468663,83.98336,170.0589)"/>
        <text
                xml:space="preserve"
                style="font-style:italic;font-variant:normal;font-weight:normal;font-stretch:normal;font-size:278.588px;font-family:'Fira Code Two iScript';-inkscape-font-specification:'Fira Code Two iScript Italic';letter-spacing:0px;fill:#cc0000;fill-opacity:1;stroke:none;stroke-width:4.77617;stroke-linecap:round;stroke-linejoin:round;stroke-miterlimit:20;stroke-dasharray:none;paint-order:stroke fill markers"
                x="780.15826"
                y="522.09412"
                id="text5"
                transform="matrix(1.0468663,0,0,1.0468663,83.98336,170.0589)"><tspan
             sodipodi:role="line"
             id="tspan5"
             x="780.15826"
             y="522.09412"
             style="font-style:normal;font-variant:normal;font-weight:600;font-stretch:normal;font-family:'Montserrat Alternates';-inkscape-font-specification:'Montserrat Alternates Semi-Bold';text-align:center;letter-spacing:0px;text-anchor:middle;fill:#cc0000;fill-opacity:1;stroke-width:4.77617">threshr</tspan></text>
        <text
                xml:space="preserve"
                style="font-weight:bold;font-size:26.6667px;font-family:FreeSans;-inkscape-font-specification:'FreeSans Bold';letter-spacing:0px;fill:#cc0000;paint-order:stroke fill markers"
                x="609.35004"
                y="268.07245"
                id="text6"><tspan
             sodipodi:role="line"
             id="tspan6"
             x="609.35004"
             y="268.07245"> </tspan></text>
        <text
                xml:space="preserve"
                style="font-weight:bold;font-size:26.6667px;font-family:FreeSans;-inkscape-font-specification:'FreeSans Bold';text-align:center;letter-spacing:0px;text-anchor:middle;fill:#cc0000;paint-order:stroke fill markers"
                x="609.35004"
                y="307.07245"
                id="text7"><tspan
             sodipodi:role="line"
             id="tspan7"
             x="613.0567"
             y="307.07245"> </tspan></text>
      </g>
    </g>
  </g>
</svg>
