<?xml version="1.0" encoding="UTF-8" standalone="no"?>
<!-- Created with Inkscape (http://www.inkscape.org/) -->

<svg
   width="1280"
   height="640"
   viewBox="0 0 1280 640.00004"
   version="1.1"
   id="svg1"
   inkscape:version="1.3 (0e150ed6c4, 2023-07-21)"
   sodipodi:docname="social-preview.svg"
   inkscape:export-filename="social-preview.png"
   inkscape:export-xdpi="96"
   inkscape:export-ydpi="96"
   xmlns:inkscape="http://www.inkscape.org/namespaces/inkscape"
   xmlns:sodipodi="http://sodipodi.sourceforge.net/DTD/sodipodi-0.dtd"
   xmlns="http://www.w3.org/2000/svg"
   xmlns:svg="http://www.w3.org/2000/svg">
  <sodipodi:namedview
     id="namedview1"
     pagecolor="#3d3d3d"
     bordercolor="#000000"
     borderopacity="1"
     inkscape:showpageshadow="0"
     inkscape:pageopacity="0"
     inkscape:pagecheckerboard="1"
     inkscape:deskcolor="#4e4e4e"
     inkscape:document-units="px"
     showborder="false"
     inkscape:zoom="0.70710678"
     inkscape:cx="651.24535"
     inkscape:cy="300.52038"
     inkscape:window-width="1920"
     inkscape:window-height="1009"
     inkscape:window-x="1912"
     inkscape:window-y="-8"
     inkscape:window-maximized="1"
     inkscape:current-layer="g1"
     showgrid="false" />
  <defs
     id="defs1" />
  <g
     inkscape:label="Layer 1"
     inkscape:groupmode="layer"
     id="layer1"
     transform="translate(-225.35004,51.927557)">
    <g
       id="g1">
      <g
         id="g2"
         transform="matrix(1.0468663,0,0,1.0468663,29.234477,18.617766)"
         style="stroke-width:0.955232">
        <path
           d="m 795.98965,334.13573 c -10.50096,-0.97683 -20.26927,-7.81465 -26.37448,-18.31559 l -1.22106,-2.19788 -1.22104,0.97682 c -3.41888,3.41892 -9.76829,7.08204 -14.40823,8.5473 -18.80403,5.86097 -36.87541,-6.1052 -41.02694,-27.35129 l -0.48844,-2.93051 -2.19788,0.97685 c -21.00187,8.30307 -41.51535,-2.93051 -45.17845,-24.42082 -0.48841,-3.90732 -0.24417,-11.47777 0.73263,-14.89668 v -0.73262 l -1.70945,0.24416 c -2.19788,0 -7.08203,-0.24416 -10.01254,-0.97682 -22.71137,-4.88416 -32.23546,-28.32813 -20.02509,-49.57422 1.46529,-2.4421 1.46529,-2.4421 0.48847,-2.68629 -0.48847,0 -1.95369,-0.48841 -3.41894,-1.22104 -25.64183,-10.25674 -29.30495,-39.56171 -7.32623,-57.3889 l 0.97682,-0.97684 -1.95367,-1.46525 c -21.97871,-17.33872 -16.36191,-48.353144 10.50096,-57.633036 0.97684,-0.244166 1.95365,-0.488383 1.95365,-0.732625 0,0 -0.4884,-0.732626 -0.97681,-1.465252 C 617.96204,55.25019 633.34709,28.63155 662.65208,28.63155 h 1.70946 v -0.732651 c -2.19788,-9.524084 -1.22105,-18.5597838 2.68628,-25.3976068 7.81467,-14.4082972 24.66501,-19.7808432 41.75957,-13.6756462 1.22106,0.488434 2.19788,0.732651 2.19788,0.732651 0,0 0,-0.488434 0.24416,-0.976843 4.63998,-29.304952 32.72389,-40.050096 55.19103,-21.246094 l 1.70946,1.46525 0.97682,-1.709468 c 13.91983,-25.153414 43.71319,-25.397631 58.60991,-0.488408 l 1.22106,2.197876 1.221,-1.221033 c 20.51348,-19.048244 50.06264,-9.035701 55.43521,19.048217 l 0.48841,2.930503 1.95369,-0.732651 c 21.24609,-8.303074 41.51535,2.4420947 45.17845,23.932406 0.73262,3.907321 0.48841,11.721961 -0.48841,15.38509 0,0.488408 0,0.488408 1.95368,0.244166 2.19788,0 6.8378,0.244165 9.76831,0.976842 22.46712,4.884138 31.9912,28.083917 20.02503,49.329987 -0.73261,1.465252 -1.221,2.442094 -1.221,2.442094 0,0.244166 0.97681,0.488383 1.95365,0.732626 27.1071,9.035675 32.23543,40.050043 9.52411,58.365663 l -0.97687,0.97682 1.95369,1.46525 c 21.97874,17.33878 16.36193,48.3532 -10.25672,57.63308 -1.22105,0.24417 -2.19786,0.48844 -2.19786,0.73263 0,0 0.48839,0.73262 0.97681,1.46525 6.34942,10.25674 7.57044,21.7345 3.66313,31.25861 -5.12841,12.21041 -18.0714,20.02507 -33.21228,20.02507 h -1.70947 v 0.73263 c 1.70947,7.57044 1.46523,14.89668 -0.73262,20.75768 -6.1052,17.33875 -24.42078,25.15341 -43.46903,18.31559 -2.68629,-0.97684 -2.44207,-0.97684 -2.68629,1.70944 -4.63992,27.83973 -33.21228,38.09647 -55.19099,19.78085 l -1.70947,-1.46525 -0.97681,1.70946 c -7.08202,13.18724 -19.53661,20.26924 -32.23544,18.80399 z m 5.12833,-24.4208 c 5.3726,-1.70945 8.54729,-9.2799 10.01254,-22.71133 0.24416,-2.68631 0.97682,-4.63995 2.19788,-6.59363 0.48841,-0.48841 1.22104,-1.46522 1.70944,-2.19785 5.86099,-8.79151 17.82718,-6.59364 21.97872,4.15153 7.32626,19.0482 22.71133,24.42079 25.15344,8.79146 0.73263,-3.90732 -0.24417,-11.47777 -1.70946,-16.11771 -1.70947,-4.88416 0,-12.21039 3.4189,-15.87353 4.88417,-5.37256 12.69883,-5.12835 17.58297,0.24417 9.0357,9.52414 15.87352,13.18724 22.46715,12.45461 6.59362,-0.73262 8.05884,-8.30307 3.1747,-18.31559 -1.22106,-2.68628 -2.19788,-4.15153 -5.37257,-9.0357 -1.70947,-2.19787 -2.44209,-6.1052 -2.44209,-10.74514 0,-5.37257 4.39572,-10.25674 10.25676,-11.23358 2.93045,-0.48841 4.39572,-0.24416 9.52407,2.19788 8.30308,4.15153 15.14093,5.61678 20.51348,4.39575 11.23355,-3.17472 7.57045,-14.89671 -7.81466,-25.39763 -6.34939,-4.15154 -9.03566,-12.94303 -6.10521,-18.80403 2.4421,-5.12838 7.08205,-7.32625 14.16405,-6.34941 8.30308,1.22103 15.38513,0.24416 20.26929,-2.19788 10.98933,-6.34939 3.66313,-17.33875 -14.40825,-21.7345 -8.54732,-2.19788 -14.40829,-10.25674 -12.69883,-17.09456 1.46525,-5.37258 4.63993,-8.05886 11.47777,-9.52411 12.45458,-2.68629 20.51344,-8.79148 20.51344,-15.62931 0,-6.5936 -10.2567,-10.25673 -24.17654,-8.79148 -4.15157,0.48841 -9.52413,-1.22103 -12.94305,-4.151537 -6.8378,-5.861005 -5.37257,-15.140872 3.1747,-20.513444 8.30307,-5.12838 13.43145,-11.233577 14.40827,-17.338774 1.70947,-9.524108 -9.76831,-11.966177 -24.90918,-4.884163 -8.79151,4.151537 -17.82721,2.197877 -21.24611,-4.639945 -2.44208,-5.128355 -1.70947,-9.035675 2.9305,-15.140898 11.96618,-15.629306 9.27989,-30.7702037 -4.63997,-25.886041 -4.15151,1.465252 -7.81462,3.907346 -13.43143,9.0357 -3.66311,3.663129 -4.39574,4.151538 -8.30307,5.372572 -5.6168,1.465252 -9.76831,0.732626 -13.43141,-2.930477 -3.66315,-3.663128 -4.39576,-7.570449 -2.4421,-13.6756465 6.83783,-20.7576865 -2.44211,-34.6775495 -14.8967,-22.2229375 -2.93048,3.174695 -5.12836,6.5936055 -8.30307,13.18723737 -3.1747,7.32623173 -12.4546,11.23355163 -18.80399,8.30307443 -4.88415,-2.4420941 -6.59362,-5.8610057 -7.08203,-13.1872374 -0.48846,-9.5241094 -2.9305,-16.1177404 -7.08202,-20.0250604 -7.81466,-7.326232 -15.87357,1.465251 -17.3388,18.5598087 -0.48841,4.3957545 -0.97682,6.59363166 -2.68629,8.7914834 -0.24416,0.2441663 -0.97681,1.2210598 -1.46522,1.9536601 C 776.45297,12.758027 764.48679,10.56015 760.57945,0.30341498 754.23006,-16.546926 739.82179,-23.628966 735.91444,-12.151196 c -1.46522,4.8841624 -1.22101,12.94304507 0.97687,19.5366511 1.70944,4.8841629 0,12.2103949 -3.41891,15.8734979 -4.88416,5.372597 -12.69884,5.12838 -17.58297,-0.244166 -6.83785,-7.326232 -11.9662,-10.745143 -17.09458,-12.210395 -10.74514,-2.4420687 -14.65247,5.616789 -8.54727,18.315592 1.22101,2.442095 2.19788,3.907346 5.37258,8.791483 1.70947,2.197877 2.44206,6.105197 2.44206,10.745169 0,5.372572 -4.39575,10.256734 -10.25674,11.233551 -2.93045,0.488409 -4.39572,0.244167 -9.52408,-2.442068 -26.61869,-13.187237 -37.60805,4.395728 -13.18723,20.75766 6.59363,4.395755 9.76832,12.942995 6.83779,18.804001 -2.44204,5.61679 -7.08201,7.81464 -14.40827,6.83782 -7.81461,-0.97684 -14.65246,-0.48841 -19.29238,1.95366 -11.72202,5.61679 -5.61681,16.60615 11.72195,21.49032 4.63998,1.22103 5.12839,1.46525 6.59362,2.44206 12.21041,7.81464 10.25673,21.49029 -3.41892,24.66501 -9.27991,1.95366 -15.14089,5.12835 -18.55981,9.76833 -6.59363,8.79148 1.46528,15.38509 17.82721,14.65246 9.27989,-0.24416 8.79148,-0.24416 14.89668,2.68629 8.79148,4.15155 8.54727,16.11774 -0.24416,21.49031 -9.76831,5.861 -15.8735,13.91986 -15.38509,20.26928 0.73262,7.57041 11.72199,8.79148 25.15342,2.44206 4.88415,-2.19788 7.57042,-2.68628 12.94303,-1.46525 9.2799,1.70947 12.69878,12.2104 6.59362,19.78085 -12.94305,16.11774 -10.98936,32.47967 3.41888,27.35128 4.15157,-1.46522 7.81467,-3.90731 13.43145,-9.03566 2.19788,-2.4421 3.66311,-3.66314 4.63992,-3.90735 13.18725,-6.1052 23.6882,2.19788 19.53668,15.14089 -6.83784,20.7577 2.44207,34.43334 14.65246,22.22292 2.68629,-2.68626 4.88417,-5.86098 7.32627,-10.98934 5.37257,-11.23358 16.11768,-14.89668 23.19972,-8.05885 2.68629,2.44207 3.66315,4.63994 3.90733,10.74514 0.73265,14.89668 7.32625,24.9092 14.65248,22.22292 z M 760.09104,232.5452 c -14.16406,-1.46522 -21.24607,-18.5598 -11.96618,-29.54916 8.30308,-10.01252 23.93238,-8.30305 30.03758,3.17472 6.5936,12.6988 -3.6631,27.59548 -18.0714,26.37444 z m 73.26241,0 c -14.16407,-1.46522 -21.24611,-18.5598 -11.96622,-29.54916 8.3031,-10.01252 23.93241,-8.30305 30.03763,3.17472 6.5936,12.6988 -3.66316,27.59548 -18.07141,26.37444 z m -109.8936,-73.26238 c -14.16405,-1.46523 -21.24607,-18.55981 -11.96617,-29.54915 8.30307,-10.01254 23.93235,-8.30307 30.03758,3.17469 6.5936,12.6988 -3.6631,27.59548 -18.07141,26.37446 z m 73.26237,0 c -14.16406,-1.46523 -21.24607,-18.55981 -11.96618,-29.54915 8.30308,-10.01254 23.93241,-8.30307 30.03758,3.17469 6.59361,12.6988 -3.6631,27.59548 -18.0714,26.37446 z m 73.26243,0 c -14.16407,-1.46523 -21.24607,-18.55981 -11.96619,-29.54915 8.30303,-10.01254 23.93236,-8.30307 30.03758,3.17469 6.5936,12.6988 -3.66316,27.59548 -18.07139,26.37446 z M 760.09104,86.020471 C 747.63645,84.799411 740.066,70.879573 745.92698,59.645996 c 6.83786,-13.187237 25.39766,-13.187237 32.23546,0 6.5936,12.698828 -3.6631,27.595509 -18.0714,26.374475 z m 73.26241,0 c -12.45462,-1.22106 -20.02505,-15.140898 -14.16407,-26.374475 6.83782,-13.187237 25.39763,-13.187237 32.23548,0 6.5936,12.698828 -3.66316,27.595509 -18.07141,26.374475 z"
           id="path2"
           style="fill:#cc0000;fill-opacity:1;stroke-width:0.955231" />
        <text
           xml:space="preserve"
           style="font-style:italic;font-variant:normal;font-weight:normal;font-stretch:normal;font-size:278.588px;font-family:'Fira Code Two iScript';-inkscape-font-specification:'Fira Code Two iScript Italic';letter-spacing:0px;fill:#cc0000;fill-opacity:1;stroke:none;stroke-width:4.77617;stroke-linecap:round;stroke-linejoin:round;stroke-miterlimit:20;stroke-dasharray:none;paint-order:stroke fill markers"
           x="221.4498"
           y="522.09412"
           id="text42"><tspan
             sodipodi:role="line"
             id="tspan42"
             x="221.4498"
             y="522.09412"
             style="font-style:normal;font-variant:normal;font-weight:bold;font-stretch:normal;font-family:FreeSans;-inkscape-font-specification:'FreeSans Bold';letter-spacing:0px;fill:#cc0000;fill-opacity:1;stroke-width:4.77617">tarvester</tspan></text>
      </g>
      <text
         xml:space="preserve"
         style="font-weight:bold;font-size:26.6667px;font-family:FreeSans;-inkscape-font-specification:'FreeSans Bold';letter-spacing:0px;fill:#cc0000;paint-order:stroke fill markers"
         x="609.35004"
         y="268.07245"
         id="text2"><tspan
           sodipodi:role="line"
           id="tspan2"
           x="609.35004"
           y="268.07245"> </tspan></text>
      <text
         xml:space="preserve"
         style="font-weight:bold;font-size:26.6667px;font-family:FreeSans;-inkscape-font-specification:'FreeSans Bold';text-align:center;letter-spacing:0px;text-anchor:middle;fill:#cc0000;paint-order:stroke fill markers"
         x="609.35004"
         y="307.07245"
         id="text4"><tspan
           sodipodi:role="line"
           id="tspan4"
           x="613.0567"
           y="307.07245"> </tspan></text>
    </g>
  </g>
</svg>
