<?xml version="1.0" encoding="UTF-8" standalone="no"?>
<!-- Created with Inkscape (http://www.inkscape.org/) -->

<svg
        width="398.83566"
        height="279.49258"
        viewBox="0 0 398.83568 279.4926"
        version="1.1"
        id="svg1"
        inkscape:version="1.3 (0e150ed6c4, 2023-07-21)"
        sodipodi:docname="Threshr-header.svg"
        inkscape:export-filename="Threshr-header.png"
        inkscape:export-xdpi="96"
        inkscape:export-ydpi="96"
        xmlns:inkscape="http://www.inkscape.org/namespaces/inkscape"
        xmlns:sodipodi="http://sodipodi.sourceforge.net/DTD/sodipodi-0.dtd"
        xmlns="http://www.w3.org/2000/svg"
>
    <sodipodi:namedview
            id="namedview1"
            pagecolor="#3d3d3d"
            bordercolor="#000000"
            borderopacity="1"
            inkscape:showpageshadow="0"
            inkscape:pageopacity="0"
            inkscape:pagecheckerboard="1"
            inkscape:deskcolor="#4e4e4e"
            inkscape:document-units="px"
            showborder="false"
            inkscape:zoom="1"
            inkscape:cx="256.5"
            inkscape:cy="240.5"
            inkscape:window-width="1920"
            inkscape:window-height="1009"
            inkscape:window-x="1912"
            inkscape:window-y="-8"
            inkscape:window-maximized="1"
            inkscape:current-layer="g2"
            showgrid="false"/>
    <defs
            id="defs1"/>
    <g
            inkscape:label="Layer 1"
            inkscape:groupmode="layer"
            id="layer1"
            transform="translate(-278.39713,26.92756)">
        <g
                id="g1">
            <g
                    id="g2"
                    transform="matrix(1.0014923,0,0,1.0014923,23.171348,40.87046)"
                    style="stroke-width:0.99851">
                <g
                        id="g5">
                    <path
                            d="m 449.94485,84.251461 c -4.13301,-0.384465 -7.97767,-3.075725 -10.38058,-7.208725 l -0.48059,-0.86505 -0.48058,0.38446 c -1.34562,1.34563 -3.84465,2.78738 -5.67086,3.36408 -7.40097,2.30679 -14.51358,-2.40291 -16.14756,-10.76504 l -0.19224,-1.1534 -0.86505,0.38447 c -8.26601,3.26796 -16.33979,-1.1534 -17.78153,-9.61165 -0.19223,-1.53786 -0.0961,-4.51747 0.28835,-5.8631 v -0.28835 l -0.67281,0.0961 c -0.86505,0 -2.78738,-0.0961 -3.94078,-0.38446 -8.93884,-1.92233 -12.68737,-11.14951 -7.88156,-19.51164 0.57671,-0.96117 0.57671,-0.96117 0.19225,-1.05728 -0.19225,0 -0.76894,-0.19223 -1.34564,-0.48058 -10.09222,-4.03689 -11.53397,-15.57087 -2.88349,-22.5873703 l 0.38446,-0.38447 -0.76893,-0.5767 c -8.65048,-6.82425 -6.43979,-19.0310407 4.13301,-22.6834607 0.38447,-0.0961 0.76893,-0.19222 0.76893,-0.28835 0,0 -0.19223,-0.28835 -0.38446,-0.5767 -5.95922,-9.707759 0.0961,-20.184439 11.63008,-20.184439 h 0.67282 v -0.28836 c -0.86505,-3.74853 -0.48059,-7.30484 1.05728,-9.9961 3.07573,-5.67088 9.70776,-7.78543 16.43591,-5.38252 0.48059,0.19224 0.86505,0.28836 0.86505,0.28836 0,0 0,-0.19224 0.0961,-0.38447 1.82622,-11.53397 12.87961,-15.76309 21.72232,-8.36213 l 0.67282,0.5767 0.38446,-0.67282 c 5.47863,-9.89999 17.20483,-9.99611 23.06794,-0.19223 l 0.48059,0.86505 0.48057,-0.48058 c 8.07378,-7.49709 19.70387,-3.55631 21.81843,7.49708 l 0.19223,1.1534 0.76894,-0.28836 c 8.36213,-3.26796 16.33979,0.96117 17.78153,9.41942 0.28835,1.53786 0.19223,4.61358 -0.19223,6.05533 0,0.19223 0,0.19223 0.76894,0.0961 0.86505,0 2.69125,0.0961 3.84465,0.38447 8.84271,1.92232 12.59124,11.05339 7.88154,19.415509 -0.28834,0.5767 -0.48057,0.96117 -0.48057,0.96117 0,0.0961 0.38446,0.19222 0.76893,0.28835 10.66893,3.5563 12.68736,15.7630707 3.74854,22.9718107 l -0.38448,0.38446 0.76894,0.5767 c 8.65049,6.8242703 6.4398,19.0310603 -4.03688,22.6834803 -0.48059,0.0961 -0.86505,0.19224 -0.86505,0.28835 0,0 0.19223,0.28835 0.38446,0.5767 2.49903,4.03689 2.97961,8.55436 1.44175,12.3029 -2.01846,4.80582 -7.11262,7.88155 -13.07183,7.88155 h -0.67282 v 0.28835 c 0.67282,2.97961 0.57669,5.8631 -0.28835,8.1699 -2.40291,6.82426 -9.61164,9.89999 -17.10873,7.20873 -1.05728,-0.38447 -0.96116,-0.38447 -1.05728,0.67281 -1.8262,10.95728 -13.07183,14.99417 -21.72231,7.78543 l -0.67282,-0.5767 -0.38446,0.67282 c -2.78737,5.19029 -7.6893,7.977655 -12.68736,7.400955 z m 2.01843,-9.611645 c 2.11457,-0.67281 3.36408,-3.65242 3.94078,-8.93882 0.0961,-1.05729 0.38446,-1.82621 0.86505,-2.59515 0.19223,-0.19223 0.48058,-0.57669 0.67281,-0.86504 2.30679,-3.4602 7.0165,-2.59515 8.65048,1.63398 2.8835,7.49707 8.93882,9.61164 9.9,3.46018 0.28835,-1.53786 -0.0961,-4.51747 -0.67282,-6.34368 -0.67282,-1.92233 0,-4.80582 1.34563,-6.24757 1.92233,-2.11456 4.99806,-2.01844 6.92038,0.0961 3.55631,3.74855 6.24757,5.19029 8.84272,4.90194 2.59514,-0.28835 3.17183,-3.26796 1.24951,-7.20873 -0.48059,-1.05728 -0.86505,-1.63398 -2.11456,-3.55631 -0.67282,-0.86505 -0.96117,-2.40291 -0.96117,-4.22912 0,-2.11456 1.73009,-4.03689 4.0369,-4.42136 1.15338,-0.19223 1.73009,-0.0961 3.74853,0.86505 3.26796,1.63398 5.95923,2.21068 8.07378,1.7301 4.42135,-1.24952 2.97961,-5.86311 -3.07573,-9.99611 -2.49902,-1.63398 -3.55629,-5.09417 -2.40291,-7.40097 0.96117,-2.01845 2.78738,-2.8835 5.57475,-2.49903 3.26796,0.48058 6.05534,0.0961 7.97767,-0.86505 4.32523,-2.49902 1.44175,-6.82426 -5.67086,-8.55436 -3.36409,-0.86505 -5.67088,-4.0368903 -4.99806,-6.7281503 0.5767,-2.11456 1.8262,-3.17184 4.51747,-3.74854 4.90193,-1.05728 8.07377,-3.46019 8.07377,-6.15145 0,-2.59514 -4.03688,-4.0368903 -9.51551,-3.4601903 -1.63399,0.19223 -3.74855,-0.48058 -5.09418,-1.63398 -2.69125,-2.3068004 -2.11456,-5.9592104 1.24951,-8.0737704 3.26796,-2.018449 5.28641,-4.421359 5.67087,-6.824269 0.67282,-3.74854 -3.84465,-4.7097 -9.80386,-1.92233 -3.4602,1.63398 -7.01651,0.86505 -8.36214,-1.82621 -0.96116,-2.01844 -0.67282,-3.5563 1.1534,-5.95922 4.7097,-6.15145 3.65242,-12.11067 -1.82622,-10.18834 -1.63397,0.5767 -3.07571,1.53787 -5.2864,3.55631 -1.44174,1.44175 -1.73009,1.63398 -3.26796,2.11456 -2.21068,0.5767 -3.84465,0.28835 -5.28639,-1.15339 -1.44176,-1.44175 -1.7301,-2.97961 -0.96117,-5.38252 2.69126,-8.1699 -0.96118,-13.64854 -5.86311,-8.7466 -1.15339,1.24951 -2.01844,2.59514 -3.26796,5.19029 -1.24951,2.88349 -4.90193,4.42135 -7.40095,3.26796 -1.92233,-0.96117 -2.59515,-2.3068 -2.78738,-5.19029 -0.19225,-3.74854 -1.1534,-6.34369 -2.78737,-7.88155 -3.07573,-2.88349 -6.24759,0.5767 -6.82428,7.30485 -0.19223,1.7301 -0.38446,2.59515 -1.05728,3.46019 -0.0961,0.0961 -0.38446,0.48059 -0.57669,0.76893 -2.30681,3.36408 -7.01651,2.49903 -8.55438,-1.53786 -2.49902,-6.63203 -8.16989,-9.41941 -9.70776,-4.90194 -0.57669,1.92233 -0.48057,5.09418 0.38448,7.68932 0.67281,1.92233 0,4.80582 -1.34563,6.24756 -1.92233,2.11457 -4.99806,2.01845 -6.92038,-0.0961 -2.69127,-2.88349 -4.70971,-4.22912 -6.72816,-4.80582 -4.22912,-0.96116 -5.76698,2.21068 -3.36407,7.20873 0.48057,0.96117 0.86505,1.53787 2.11456,3.46019 0.67282,0.86505 0.96116,2.40291 0.96116,4.22913 0,2.11456 -1.7301,4.03689 -4.03689,4.42135 -1.15338,0.19223 -1.73009,0.0961 -3.74853,-0.96116 -10.4767,-5.19029 -14.80194,1.73009 -5.19029,8.169889 2.59515,1.7301 3.84466,5.09416 2.69125,7.4009604 -0.96115,2.21068 -2.78737,3.07572 -5.67087,2.69126 -3.07571,-0.38447 -5.76698,-0.19223 -7.59318,0.7689303 -4.6136,2.21068 -2.21069,6.53592 4.61358,8.45825 1.82622,0.48058 2.01845,0.5767 2.59514,0.96116 4.80583,3.07572 4.03689,8.4582403 -1.34563,9.7077603 -3.65243,0.76893 -5.95922,2.01844 -7.30485,3.84466 -2.59515,3.46019 0.57671,6.05533 7.01651,5.76698 3.65242,-0.0961 3.46019,-0.0961 5.8631,1.05728 3.46019,1.63399 3.36407,6.34369 -0.0961,8.45825 -3.84465,2.3068 -6.24756,5.47864 -6.05533,7.97767 0.28835,2.9796 4.61359,3.46019 9.89999,0.96116 1.92233,-0.86505 2.9796,-1.05728 5.09418,-0.5767 3.65242,0.67282 4.99804,4.80582 2.59514,7.78543 -5.09418,6.34369 -4.32524,12.78349 1.34562,10.76504 1.63399,-0.57669 3.07573,-1.53786 5.28641,-3.5563 0.86505,-0.96117 1.44174,-1.44175 1.8262,-1.53787 5.19029,-2.40291 9.3233,0.86505 7.68933,5.95922 -2.69127,8.1699 0.96116,13.55242 5.76698,8.74659 1.05728,-1.05727 1.92233,-2.30679 2.8835,-4.32523 2.11456,-4.42136 6.34367,-5.8631 9.13105,-3.17184 1.05728,0.96116 1.44176,1.82621 1.53786,4.22912 0.28836,5.8631 2.8835,9.80387 5.76699,8.74659 z m -16.14756,-30.37279 c -5.57475,-0.57669 -8.36212,-7.30485 -4.7097,-11.63009 3.26796,-3.94077 9.41941,-3.26795 11.82232,1.24952 2.59514,4.99805 -1.44174,10.86115 -7.11262,10.38057 z m 28.83494,0 c -5.57476,-0.57669 -8.36214,-7.30485 -4.70972,-11.63009 3.26797,-3.94077 9.41942,-3.26795 11.82234,1.24952 2.59514,4.99805 -1.44176,10.86115 -7.11262,10.38057 z m -43.2524,-28.83493 c -5.57475,-0.57669 -8.36212,-7.3048503 -4.7097,-11.6300803 3.26796,-3.94078 9.4194,-3.26796 11.82232,1.24951 2.59514,4.9980503 -1.44174,10.8611503 -7.11262,10.3805703 z m 28.83492,0 c -5.57475,-0.57669 -8.36212,-7.3048503 -4.7097,-11.6300803 3.26796,-3.94078 9.41942,-3.26796 11.82232,1.24951 2.59514,4.9980503 -1.44174,10.8611503 -7.11262,10.3805703 z m 28.83494,0 c -5.57475,-0.57669 -8.36212,-7.3048503 -4.7097,-11.6300803 3.26794,-3.94078 9.4194,-3.26796 11.82232,1.24951 2.59514,4.9980503 -1.44176,10.8611503 -7.11262,10.3805703 z m -43.2524,-28.834911 c -4.90193,-0.48059 -7.88154,-5.959219 -5.57475,-10.380579 2.69127,-5.19029 9.99612,-5.19029 12.68737,0 2.59514,4.99806 -1.44174,10.861159 -7.11262,10.380579 z m 28.83494,0 c -4.90195,-0.48059 -7.88155,-5.959219 -5.57476,-10.380579 2.69126,-5.19029 9.99611,-5.19029 12.68738,0 2.59514,4.99806 -1.44176,10.861159 -7.11262,10.380579 z"
                            id="path2"
                            style="fill:#cc0000;fill-opacity:1;stroke-width:0.998509"/>
                    <path
                            style="font-weight:600;font-size:109.648px;font-family:'Montserrat Alternates';-inkscape-font-specification:'Montserrat Alternates Semi-Bold';text-align:center;letter-spacing:0px;text-anchor:middle;fill:#cc0000;stroke-width:4.99255;stroke-linecap:round;stroke-linejoin:round;stroke-miterlimit:20;paint-order:stroke fill markers"
                            d="m 284.34079,161.05992 c -2.08331,1.64472 -4.82451,2.41225 -7.67536,2.41225 -5.15346,0 -8.11395,-3.07014 -8.11395,-8.77184 v -27.85059 h 15.67966 v -10.9648 h -15.67966 v -13.37706 h -13.706 v 52.5214 c 0,12.93846 7.34641,19.73664 20.17523,19.73664 4.93416,0 9.86832,-1.31578 13.15776,-3.94733 z m 48.35476,-46.27146 c -8.11396,0 -15.02178,2.63155 -19.51735,7.45607 V 92.639565 h -13.706 v 81.358815 h 13.706 v -29.60496 c 0,-11.73233 6.57888,-17.65333 16.33755,-17.65333 8.77184,0 13.9253,5.04381 13.9253,15.46037 v 31.79792 h 13.706 v -33.55229 c 0,-17.65332 -10.41656,-25.65763 -24.4515,-25.65763 z m 54.93359,9.21043 v -8.55254 h -13.04811 v 58.55203 h 13.706 v -28.39883 c 0,-11.95163 6.57888,-18.09192 16.99544,-18.09192 0.98683,0 1.97366,0.10965 3.17979,0.32894 v -13.04811 c -9.75867,0 -16.88579,3.07015 -20.83312,9.21043 z m 59.75814,39.14434 c -8.55254,0 -14.91212,-3.61838 -17.76297,-10.30691 l 44.84603,-8.77184 c -0.10965,-18.31122 -13.26741,-29.27602 -29.60496,-29.27602 -17.43403,0 -30.1532,12.49987 -30.1532,29.93391 0,17.43403 12.71917,30.04355 32.34616,30.04355 10.08762,0 18.31122,-3.28944 23.46467,-9.53938 l -7.23676,-8.44289 c -4.27628,4.27627 -9.32009,6.35958 -15.89897,6.35958 z m -2.5219,-37.38997 c 8.2236,0 14.36389,4.82451 16.2279,11.95163 l -33.11369,6.35959 v -0.10965 c 0,-11.1841 6.90782,-18.20157 16.88579,-18.20157 z m 60.85466,49.01266 c 16.4472,0 26.53482,-7.12712 26.53482,-18.09192 0,-22.91643 -36.18384,-12.39023 -36.18384,-24.23221 0,-3.83768 3.94733,-6.57888 12.28058,-6.57888 5.59204,0 11.18409,1.09648 16.77614,4.38592 l 5.2631,-10.41656 c -5.2631,-3.17979 -14.14459,-5.04381 -21.9296,-5.04381 -15.78931,0 -25.76728,7.23677 -25.76728,18.31122 0,23.35502 36.18384,12.82881 36.18384,24.01291 0,4.05698 -3.61838,6.46923 -12.28057,6.46923 -7.34642,0 -15.24108,-2.41225 -20.39453,-5.81134 l -5.26311,10.41656 c 5.26311,3.72803 15.02178,6.57888 24.78045,6.57888 z m 71.60009,-59.97746 c -8.11396,0 -15.02178,2.63155 -19.51735,7.45607 V 92.639565 h -13.706 v 81.358815 h 13.706 v -29.60496 c 0,-11.73233 6.57888,-17.65333 16.33755,-17.65333 8.77184,0 13.9253,5.04381 13.9253,15.46037 v 31.79792 h 13.706 v -33.55229 c 0,-17.65332 -10.41656,-25.65763 -24.4515,-25.65763 z m 54.93359,9.21043 v -8.55254 h -13.04811 v 58.55203 h 13.706 v -28.39883 c 0,-11.95163 6.57888,-18.09192 16.99544,-18.09192 0.98683,0 1.97366,0.10965 3.17979,0.32894 v -13.04811 c -9.75867,0 -16.88579,3.07015 -20.83312,9.21043 z"
                            id="text42"
                            aria-label="threshr"/>
                    <path
                            style="font-size:26.6667px;font-family:'Montserrat Alternates';-inkscape-font-specification:'Montserrat Alternates';text-align:center;letter-spacing:0px;text-anchor:middle;fill:#cc0000;paint-order:stroke fill markers"
                            d="m 297.29887,191.9391 c -2.32,0 -4.26667,1.01333 -5.41334,2.88 v -2.77334 h -1.81333 v 19.20003 h 1.89333 v -7.81334 c 1.17334,1.81333 3.09334,2.77333 5.33334,2.77333 4.00001,0 6.98668,-2.88 6.98668,-7.14667 0,-4.24001 -2.98667,-7.12001 -6.98668,-7.12001 z m -0.13333,12.58668 c -2.98667,0 -5.22668,-2.18667 -5.22668,-5.46667 0,-3.25334 2.24001,-5.46668 5.22668,-5.46668 2.96,0 5.22667,2.21334 5.22667,5.46668 0,3.28 -2.26667,5.46667 -5.22667,5.46667 z m 21.89335,-12.48002 v 2.66667 c -1.17334,-1.81333 -3.09334,-2.77333 -5.33334,-2.77333 -4.00001,0 -6.98668,2.88 -6.98668,7.12001 0,4.24 2.98667,7.14667 6.98668,7.14667 2.32,0 4.26667,-1.01333 5.41334,-2.90667 v 2.77334 h 1.81333 v -14.02669 z m -5.17334,12.48002 c -2.98667,0 -5.22668,-2.18667 -5.22668,-5.46667 0,-3.28001 2.24001,-5.46668 5.22668,-5.46668 2.96,0 5.2,2.18667 5.2,5.46668 0,3.28 -2.24,5.46667 -5.2,5.46667 z m 14.16,-9.73335 v -2.74667 h -1.81334 v 14.02669 h 1.89334 v -7.14668 c 0,-3.30667 1.78667,-5.17334 4.72001,-5.17334 0.13333,0 0.29333,0.0267 0.45333,0.0267 v -1.84 c -2.58667,0 -4.37334,0.98667 -5.25334,2.85333 z m 14.90668,9.06668 c -0.53334,0.48 -1.28001,0.72 -2.08001,0.72 -1.57333,0 -2.4,-0.90666 -2.4,-2.56 v -8.37334 h 4.24001 v -1.60001 h -4.24001 v -3.06667 h -1.89334 v 13.14669 c 0,2.58667 1.46667,4.08 4.10668,4.08 1.09333,0 2.21333,-0.32 2.93333,-0.98667 z m 16.82668,2.34667 c 4.10667,0 7.12,-2.98667 7.12,-7.14667 0,-4.16001 -3.01333,-7.12001 -7.12,-7.12001 -4.10668,0 -7.14668,2.96 -7.14668,7.12001 0,4.16 3.04,7.14667 7.14668,7.14667 z m 0,-1.68 c -2.98667,0 -5.22668,-2.18667 -5.22668,-5.46667 0,-3.28001 2.24001,-5.46668 5.22668,-5.46668 2.98667,0 5.2,2.18667 5.2,5.46668 0,3.28 -2.21333,5.46667 -5.2,5.46667 z m 15.3067,-16.77335 c 0.8,0 1.54667,0.24 2.08001,0.69333 l 0.64,-1.41334 c -0.69334,-0.58666 -1.76,-0.88 -2.80001,-0.88 -2.74667,0 -4.24,1.65334 -4.24,4.16001 v 15.76002 h 1.89333 v -12.42668 h 4.26668 v -1.60001 h -4.32001 v -1.65333 c 0,-1.73334 0.85334,-2.64 2.48,-2.64 z m 17.62666,16.10668 c -0.53333,0.48 -1.28,0.72 -2.08,0.72 -1.57333,0 -2.4,-0.90666 -2.4,-2.56 v -8.37334 h 4.24 v -1.60001 h -4.24 v -3.06667 h -1.89334 v 13.14669 c 0,2.58667 1.46667,4.08 4.10667,4.08 1.09334,0 2.21334,-0.32 2.93334,-0.98667 z m 11.25336,-11.92001 c -2.37334,0 -4.21334,0.93333 -5.25334,2.56 v -8.21334 h -1.89334 v 19.78669 h 1.89334 v -7.36001 c 0,-3.2 1.89333,-5.06667 4.90667,-5.06667 2.66667,0 4.21334,1.52 4.21334,4.48 v 7.94668 h 1.89334 v -8.13334 c 0,-4.02668 -2.34667,-6.00001 -5.76001,-6.00001 z m 16.96004,12.58668 c -2.61333,0 -4.58667,-1.38667 -5.28,-3.65334 l 11.52001,-2.24 c -0.13333,-3.94667 -2.96,-6.69334 -6.72001,-6.69334 -4.02667,0 -6.93334,2.96 -6.93334,7.12001 0,4.16 3.01334,7.14667 7.38668,7.14667 2.21333,0 4.13333,-0.8 5.38667,-2.29333 l -1.06667,-1.22667 c -1.04,1.22667 -2.56,1.84 -4.29334,1.84 z m -0.48,-10.96001 c 2.58667,0 4.42667,1.73333 4.82668,4.02667 l -9.89335,1.92 c -0.0267,-0.18667 -0.0267,-0.37333 -0.0267,-0.58667 0,-3.17333 2.10667,-5.36 5.09334,-5.36 z m 31.12002,8.93334 c -1.44,1.38667 -3.36001,2 -5.25334,2 -3.92001,0 -7.60001,-2.77333 -7.60001,-7.70667 0,-4.50668 3.38667,-7.78668 8.00001,-7.78668 2.18667,0 4.05334,0.64 5.62667,2.18667 l 1.22667,-1.25333 c -1.65334,-1.78667 -4.10667,-2.69334 -6.93334,-2.69334 -5.70668,0 -9.86668,4.02667 -9.86668,9.54668 0,6.08 4.53334,9.44001 9.41334,9.44001 2.10667,0 4.08001,-0.56 5.54668,-1.73334 v 1.57334 h 1.73333 v -9.33335 h -1.89333 z m 8.88004,-7.70668 v -2.74667 h -1.81334 v 14.02669 h 1.89334 v -7.14668 c 0,-3.30667 1.78667,-5.17334 4.72,-5.17334 0.13334,0 0.29334,0.0267 0.45334,0.0267 v -1.84 c -2.58667,0 -4.37334,0.98667 -5.25334,2.85333 z m 19.43998,-2.74667 v 2.66667 c -1.17334,-1.81333 -3.09334,-2.77333 -5.33334,-2.77333 -4.00001,0 -6.98668,2.88 -6.98668,7.12001 0,4.24 2.98667,7.14667 6.98668,7.14667 2.32,0 4.26667,-1.01333 5.41334,-2.90667 v 2.77334 h 1.81333 v -14.02669 z m -5.17334,12.48002 c -2.98667,0 -5.22668,-2.18667 -5.22668,-5.46667 0,-3.28001 2.24001,-5.46668 5.22668,-5.46668 2.96,0 5.2,2.18667 5.2,5.46668 0,3.28 -2.24,5.46667 -5.2,5.46667 z m 23.33335,-12.48002 v 2.77334 c -1.14667,-1.86667 -3.09333,-2.88 -5.41334,-2.88 -4,0 -6.98667,2.88 -6.98667,7.12001 0,4.26667 2.98667,7.14667 6.98667,7.14667 2.24001,0 4.16001,-0.96 5.33334,-2.77333 v 7.81334 h 1.89334 v -19.20003 z m -5.25334,12.48002 c -2.98667,0 -5.22667,-2.18667 -5.22667,-5.46667 0,-3.25334 2.24,-5.46668 5.22667,-5.46668 2.96001,0 5.20001,2.21334 5.20001,5.46668 0,3.28 -2.24,5.46667 -5.20001,5.46667 z m 14.16,-9.73335 v -2.74667 h -1.81334 v 14.02669 h 1.89334 v -7.14668 c 0,-3.30667 1.78667,-5.17334 4.72001,-5.17334 0.13333,0 0.29333,0.0267 0.45333,0.0267 v -1.84 c -2.58667,0 -4.37334,0.98667 -5.25334,2.85333 z m 23.09332,-2.85333 c -2.32001,0 -4.26667,1.01333 -5.41334,2.88 v -2.77334 h -1.81334 v 19.20003 h 1.89334 v -7.81334 c 1.17333,1.81333 3.09333,2.77333 5.33334,2.77333 4,0 6.98667,-2.88 6.98667,-7.14667 0,-4.24001 -2.98667,-7.12001 -6.98667,-7.12001 z m -0.13334,12.58668 c -2.98667,0 -5.22667,-2.18667 -5.22667,-5.46667 0,-3.25334 2.24,-5.46668 5.22667,-5.46668 2.96001,0 5.22668,2.21334 5.22668,5.46668 0,3.28 -2.26667,5.46667 -5.22668,5.46667 z m 12.80001,-9.73335 v -2.74667 h -1.81333 v 14.02669 h 1.89333 v -7.14668 c 0,-3.30667 1.78667,-5.17334 4.72001,-5.17334 0.13333,0 0.29333,0.0267 0.45333,0.0267 v -1.84 c -2.58667,0 -4.37333,0.98667 -5.25334,2.85333 z m 14.26666,11.41335 c 4.10667,0 7.12001,-2.98667 7.12001,-7.14667 0,-4.16001 -3.01334,-7.12001 -7.12001,-7.12001 -4.10667,0 -7.14668,2.96 -7.14668,7.12001 0,4.16 3.04001,7.14667 7.14668,7.14667 z m 0,-1.68 c -2.98667,0 -5.22667,-2.18667 -5.22667,-5.46667 0,-3.28001 2.24,-5.46668 5.22667,-5.46668 2.98667,0 5.20001,2.18667 5.20001,5.46668 0,3.28 -2.21334,5.46667 -5.20001,5.46667 z m 12.08002,-15.54669 c 0.80001,0 1.38667,-0.61333 1.38667,-1.38666 0,-0.72001 -0.61333,-1.30667 -1.38667,-1.30667 -0.77333,0 -1.38666,0.61333 -1.38666,1.33333 0,0.74667 0.61333,1.36 1.38666,1.36 z m -3.17333,22.40003 c 2.66667,0 4.10667,-1.68 4.10667,-4.26667 v -15.06669 h -1.89334 v 15.06669 c 0,1.73334 -0.82666,2.64 -2.32,2.64 -0.88,0 -1.62667,-0.24 -2.18667,-0.72 l -0.66667,1.44 c 0.69334,0.61334 1.84001,0.90667 2.96001,0.90667 z m 15.38668,-6.85334 c -2.61334,0 -4.58667,-1.38667 -5.28001,-3.65334 l 11.52002,-2.24 c -0.13334,-3.94667 -2.96001,-6.69334 -6.72001,-6.69334 -4.02667,0 -6.93334,2.96 -6.93334,7.12001 0,4.16 3.01333,7.14667 7.38667,7.14667 2.21334,0 4.13334,-0.8 5.38668,-2.29333 l -1.06667,-1.22667 c -1.04,1.22667 -2.56001,1.84 -4.29334,1.84 z m -0.48,-10.96001 c 2.58667,0 4.42667,1.73333 4.82667,4.02667 l -9.89335,1.92 c -0.0267,-0.18667 -0.0267,-0.37333 -0.0267,-0.58667 0,-3.17333 2.10667,-5.36 5.09334,-5.36 z m 16.40002,12.64001 c 2.37334,0 4.37334,-0.96 5.49334,-2.77333 l -1.41333,-0.96001 c -0.96001,1.41334 -2.45334,2.05334 -4.08001,2.05334 -3.06667,0 -5.30667,-2.16 -5.30667,-5.46667 0,-3.28001 2.24,-5.46668 5.30667,-5.46668 1.62667,0 3.12,0.66667 4.08001,2.08001 l 1.41333,-0.96001 c -1.12,-1.84 -3.12,-2.77333 -5.49334,-2.77333 -4.18667,0 -7.22667,2.93333 -7.22667,7.12001 0,4.18667 3.04,7.14667 7.22667,7.14667 z m 15.22669,-2.34667 c -0.53334,0.48 -1.28001,0.72 -2.08001,0.72 -1.57333,0 -2.4,-0.90666 -2.4,-2.56 v -8.37334 h 4.24001 v -1.60001 h -4.24001 v -3.06667 h -1.89333 v 13.14669 c 0,2.58667 1.46666,4.08 4.10667,4.08 1.09333,0 2.21333,-0.32 2.93333,-0.98667 z"
                            id="text1"
                            aria-label="part of the Graqr project"/>
                </g>
                <path
                        d="m 1016.1,84.251461 c -4.133,-0.384465 -7.9777,-3.075725 -10.3806,-7.208725 l -0.4806,-0.86505 -0.4806,0.38446 c -1.3456,1.34563 -3.8446,2.78738 -5.67083,3.36408 -7.40097,2.30679 -14.51358,-2.40291 -16.14756,-10.76504 l -0.19224,-1.1534 -0.86505,0.38447 c -8.26601,3.26796 -16.33979,-1.1534 -17.78153,-9.61165 -0.19223,-1.53786 -0.0961,-4.51747 0.28835,-5.8631 v -0.28835 l -0.67281,0.0961 c -0.86505,0 -2.78738,-0.0961 -3.94078,-0.38446 -8.93884,-1.92233 -12.68737,-11.14951 -7.88156,-19.51164 0.57671,-0.96117 0.57671,-0.96117 0.19225,-1.05728 -0.19225,0 -0.76894,-0.19223 -1.34564,-0.48058 -10.09222,-4.03689 -11.53397,-15.57087 -2.88349,-22.5873703 l 0.38446,-0.38447 -0.76893,-0.5767 c -8.65048,-6.82425 -6.43979,-19.0310407 4.13301,-22.6834607 0.38447,-0.0961 0.76893,-0.19222 0.76893,-0.28835 0,0 -0.19223,-0.28835 -0.38446,-0.5767 -5.95922,-9.707759 0.0961,-20.184439 11.63008,-20.184439 h 0.67282 v -0.28836 c -0.86505,-3.74853 -0.48059,-7.30484 1.05728,-9.9961 3.07573,-5.67088 9.70776,-7.78543 16.43591,-5.38252 0.48059,0.19224 0.86505,0.28836 0.86505,0.28836 0,0 0,-0.19224 0.0961,-0.38447 1.82622,-11.53397 12.87961,-15.76309 21.72234,-8.36213 l 0.6728,0.5767 0.3845,-0.67282 c 5.4786,-9.89999 17.2048,-9.99611 23.0679,-0.19223 l 0.4806,0.86505 0.4806,-0.48058 c 8.0737,-7.49709 19.7038,-3.55631 21.8184,7.49708 l 0.1922,1.1534 0.769,-0.28836 c 8.3621,-3.26796 16.3397,0.96117 17.7815,9.41942 0.2883,1.53786 0.1922,4.61358 -0.1922,6.05533 0,0.19223 0,0.19223 0.7689,0.0961 0.865,0 2.6912,0.0961 3.8446,0.38447 8.8428,1.92232 12.5913,11.05339 7.8816,19.415509 -0.2884,0.5767 -0.4806,0.96117 -0.4806,0.96117 0,0.0961 0.3845,0.19222 0.7689,0.28835 10.669,3.5563 12.6874,15.7630707 3.7486,22.9718107 l -0.3845,0.38446 0.7689,0.5767 c 8.6505,6.8242703 6.4398,19.0310603 -4.0368,22.6834803 -0.4806,0.0961 -0.8651,0.19224 -0.8651,0.28835 0,0 0.1922,0.28835 0.3845,0.5767 2.499,4.03689 2.9796,8.55436 1.4417,12.3029 -2.0184,4.80582 -7.1126,7.88155 -13.0718,7.88155 h -0.6728 v 0.28835 c 0.6728,2.97961 0.5767,5.8631 -0.2884,8.1699 -2.4029,6.82426 -9.6116,9.89999 -17.1087,7.20873 -1.0573,-0.38447 -0.9612,-0.38447 -1.0573,0.67281 -1.8262,10.95728 -13.0718,14.99417 -21.7223,7.78543 l -0.6728,-0.5767 -0.3845,0.67282 c -2.7873,5.19029 -7.6893,7.977655 -12.6873,7.400955 z m 2.0184,-9.611645 c 2.1146,-0.67281 3.3641,-3.65242 3.9408,-8.93882 0.096,-1.05729 0.3844,-1.82621 0.865,-2.59515 0.1923,-0.19223 0.4806,-0.57669 0.6728,-0.86504 2.3068,-3.4602 7.0165,-2.59515 8.6505,1.63398 2.8835,7.49707 8.9388,9.61164 9.9,3.46018 0.2884,-1.53786 -0.096,-4.51747 -0.6728,-6.34368 -0.6728,-1.92233 0,-4.80582 1.3456,-6.24757 1.9224,-2.11456 4.9981,-2.01844 6.9204,0.0961 3.5563,3.74855 6.2476,5.19029 8.8427,4.90194 2.5952,-0.28835 3.1719,-3.26796 1.2495,-7.20873 -0.4805,-1.05728 -0.865,-1.63398 -2.1145,-3.55631 -0.6728,-0.86505 -0.9612,-2.40291 -0.9612,-4.22912 0,-2.11456 1.7301,-4.03689 4.0369,-4.42136 1.1534,-0.19223 1.7301,-0.0961 3.7485,0.86505 3.268,1.63398 5.9593,2.21068 8.0738,1.7301 4.4214,-1.24952 2.9796,-5.86311 -3.0757,-9.99611 -2.499,-1.63398 -3.5563,-5.09417 -2.4029,-7.40097 0.9612,-2.01845 2.7874,-2.8835 5.5747,-2.49903 3.268,0.48058 6.0554,0.0961 7.9777,-0.86505 4.3252,-2.49902 1.4418,-6.82426 -5.6709,-8.55436 -3.364,-0.86505 -5.6708,-4.0368903 -4.998,-6.7281503 0.5767,-2.11456 1.8262,-3.17184 4.5175,-3.74854 4.9019,-1.05728 8.0737,-3.46019 8.0737,-6.15145 0,-2.59514 -4.0369,-4.0368903 -9.5155,-3.4601903 -1.634,0.19223 -3.7485,-0.48058 -5.0942,-1.63398 -2.6912,-2.3068004 -2.1145,-5.9592104 1.2495,-8.0737704 3.268,-2.018449 5.2865,-4.421359 5.6709,-6.824269 0.6728,-3.74854 -3.8446,-4.7097 -9.8038,-1.92233 -3.4602,1.63398 -7.0166,0.86505 -8.3622,-1.82621 -0.9611,-2.01844 -0.6728,-3.5563 1.1534,-5.95922 4.7097,-6.15145 3.6524,-12.11067 -1.8262,-10.18834 -1.634,0.5767 -3.0757,1.53787 -5.2864,3.55631 -1.4417,1.44175 -1.7301,1.63398 -3.268,2.11456 -2.2106,0.5767 -3.8446,0.28835 -5.2864,-1.15339 -1.4417,-1.44175 -1.7301,-2.97961 -0.9611,-5.38252 2.6912,-8.1699 -0.9612,-13.64854 -5.8631,-8.7466 -1.1534,1.24951 -2.0185,2.59514 -3.268,5.19029 -1.2495,2.88349 -4.9019,4.42135 -7.4009,3.26796 -1.9224,-0.96117 -2.5952,-2.3068 -2.7874,-5.19029 -0.1923,-3.74854 -1.1534,-6.34369 -2.7874,-7.88155 -3.0757,-2.88349 -6.2476,0.5767 -6.8243,7.30485 -0.1922,1.7301 -0.3844,2.59515 -1.0573,3.46019 -0.096,0.0961 -0.3844,0.48059 -0.5766,0.76893 -2.3069,3.36408 -7.0166,2.49903 -8.5544,-1.53786 -2.49904,-6.63203 -8.16991,-9.41941 -9.70778,-4.90194 -0.57669,1.92233 -0.48057,5.09418 0.38448,7.68932 0.67281,1.92233 0,4.80582 -1.34563,6.24756 -1.92233,2.11457 -4.99806,2.01845 -6.92038,-0.0961 -2.69127,-2.88349 -4.70971,-4.22912 -6.72816,-4.80582 -4.22912,-0.96116 -5.76698,2.21068 -3.36407,7.20873 0.48057,0.96117 0.86505,1.53787 2.11456,3.46019 0.67282,0.86505 0.96116,2.40291 0.96116,4.22913 0,2.11456 -1.7301,4.03689 -4.03689,4.42135 -1.15338,0.19223 -1.73009,0.0961 -3.74853,-0.96116 -10.4767,-5.19029 -14.80194,1.73009 -5.19029,8.169889 2.59515,1.7301 3.84466,5.09416 2.69125,7.4009604 -0.96115,2.21068 -2.78737,3.07572 -5.67087,2.69126 -3.07571,-0.38447 -5.76698,-0.19223 -7.59318,0.7689303 -4.6136,2.21068 -2.21069,6.53592 4.61358,8.45825 1.82622,0.48058 2.01845,0.5767 2.59514,0.96116 4.80583,3.07572 4.03689,8.4582403 -1.34563,9.7077603 -3.65243,0.76893 -5.95922,2.01844 -7.30485,3.84466 -2.59515,3.46019 0.57671,6.05533 7.01651,5.76698 3.65242,-0.0961 3.46019,-0.0961 5.8631,1.05728 3.46019,1.63399 3.36407,6.34369 -0.0961,8.45825 -3.84465,2.3068 -6.24756,5.47864 -6.05533,7.97767 0.28835,2.9796 4.61359,3.46019 9.89999,0.96116 1.92233,-0.86505 2.9796,-1.05728 5.09418,-0.5767 3.65242,0.67282 4.99804,4.80582 2.59514,7.78543 -5.09418,6.34369 -4.32524,12.78349 1.34562,10.76504 1.63399,-0.57669 3.07573,-1.53786 5.28641,-3.5563 0.86505,-0.96117 1.44174,-1.44175 1.8262,-1.53787 5.19029,-2.40291 9.3233,0.86505 7.68933,5.95922 -2.69127,8.1699 0.96116,13.55242 5.76698,8.74659 1.05728,-1.05727 1.92236,-2.30679 2.88346,-4.32523 2.1146,-4.42136 6.3437,-5.8631 9.1311,-3.17184 1.0573,0.96116 1.4417,1.82621 1.5378,4.22912 0.2884,5.8631 2.8835,9.80387 5.767,8.74659 z m -16.1476,-30.37279 c -5.5747,-0.57669 -8.36207,-7.30485 -4.70965,-11.63009 3.26795,-3.94077 9.41945,-3.26795 11.82235,1.24952 2.5951,4.99805 -1.4418,10.86115 -7.1127,10.38057 z m 28.835,0 c -5.5748,-0.57669 -8.3622,-7.30485 -4.7097,-11.63009 3.2679,-3.94077 9.4194,-3.26795 11.8223,1.24952 2.5951,4.99805 -1.4418,10.86115 -7.1126,10.38057 z m -43.25241,-28.83493 c -5.57475,-0.57669 -8.36212,-7.3048503 -4.7097,-11.6300803 3.26796,-3.94078 9.4194,-3.26796 11.82232,1.24951 2.59514,4.9980503 -1.44174,10.8611503 -7.11262,10.3805703 z m 28.83491,0 c -5.5747,-0.57669 -8.3621,-7.3048503 -4.7097,-11.6300803 3.268,-3.94078 9.4194,-3.26796 11.8223,1.24951 2.5952,4.9980503 -1.4417,10.8611503 -7.1126,10.3805703 z m 28.8349,0 c -5.5747,-0.57669 -8.3621,-7.3048503 -4.7097,-11.6300803 3.268,-3.94078 9.4194,-3.26796 11.8224,1.24951 2.5951,4.9980503 -1.4418,10.8611503 -7.1127,10.3805703 z m -43.2524,-28.834911 c -4.90188,-0.48059 -7.88149,-5.959219 -5.5747,-10.380579 2.69127,-5.19029 9.9961,-5.19029 12.6874,0 2.5951,4.99806 -1.4418,10.861159 -7.1127,10.380579 z m 28.835,0 c -4.902,-0.48059 -7.8816,-5.959219 -5.5748,-10.380579 2.6913,-5.19029 9.9961,-5.19029 12.6874,0 2.5951,4.99806 -1.4418,10.861159 -7.1126,10.380579 z"
                        id="path1"
                        style="fill:#cc0000;fill-opacity:1;stroke-width:0.998509"/>
                <text
                        xml:space="preserve"
                        style="font-style:italic;font-variant:normal;font-weight:normal;font-stretch:normal;font-size:109.648px;font-family:'Fira Code Two iScript';-inkscape-font-specification:'Fira Code Two iScript Italic';text-align:center;letter-spacing:0px;text-anchor:middle;fill:#cc0000;fill-opacity:1;stroke:none;stroke-width:4.99255;stroke-linecap:round;stroke-linejoin:round;stroke-miterlimit:20;stroke-dasharray:none;paint-order:stroke fill markers"
                        x="1017.4349"
                        y="173.99838"
                        id="text3"><tspan
             sodipodi:role="line"
             id="tspan1"
             x="1017.4349"
             y="173.99838"
             style="font-style:normal;font-variant:normal;font-weight:600;font-stretch:normal;font-family:'Montserrat Alternates';-inkscape-font-specification:'Montserrat Alternates Semi-Bold';text-align:center;letter-spacing:0px;text-anchor:middle;fill:#cc0000;fill-opacity:1;stroke-width:4.99255">threshr</tspan></text>
                <text
                        xml:space="preserve"
                        style="font-weight:bold;font-size:26.6667px;font-family:FreeSans;-inkscape-font-specification:'FreeSans Bold';text-align:center;letter-spacing:0px;text-anchor:middle;fill:#cc0000;stroke-width:0.99851;paint-order:stroke fill markers"
                        x="1016.8141"
                        y="206.07245"
                        id="text5"><tspan
             sodipodi:role="line"
             x="1016.8141"
             y="206.07245"
             style="font-style:normal;font-variant:normal;font-weight:normal;font-stretch:normal;font-size:26.6667px;font-family:'Montserrat Alternates';-inkscape-font-specification:'Montserrat Alternates';text-align:center;text-anchor:middle;stroke-width:0.99851"
             id="tspan5">part of the Graqr project</tspan></text>
            </g>
            <text
                    xml:space="preserve"
                    style="font-weight:bold;font-size:26.6667px;font-family:FreeSans;-inkscape-font-specification:'FreeSans Bold';letter-spacing:0px;fill:#cc0000;paint-order:stroke fill markers"
                    x="609.35004"
                    y="268.07245"
                    id="text2"><tspan
           sodipodi:role="line"
           id="tspan2"
           x="609.35004"
           y="268.07245"> </tspan></text>
            <text
                    xml:space="preserve"
                    style="font-weight:bold;font-size:26.6667px;font-family:FreeSans;-inkscape-font-specification:'FreeSans Bold';text-align:center;letter-spacing:0px;text-anchor:middle;fill:#cc0000;paint-order:stroke fill markers"
                    x="609.35004"
                    y="307.07245"
                    id="text4"><tspan
           sodipodi:role="line"
           id="tspan4"
           x="613.0567"
           y="307.07245"> </tspan></text>
        </g>
    </g>
</svg>
